{
    "asset" : {
        "generator" : "Khronos glTF Blender I/O v0.9.36",
        "version" : "2.0"
    },
    "scene" : 0,
    "scenes" : [
        {
            "name" : "Scene",
            "nodes" : [
                0
            ]
        }
    ],
    "nodes" : [
        {
            "mesh" : 0,
            "name" : "1_SpanishOmelette"
        }
    ],
    "materials" : [
        {
            "doubleSided" : true,
            "name" : "Body",
            "pbrMetallicRoughness" : {
                "baseColorFactor" : [
                    0.803921639919281,
                    0.803921639919281,
                    0.803921639919281,
                    1
                ],
                "metallicFactor" : 1,
                "roughnessFactor" : 0.8318207263946533
            }
        },
        {
            "doubleSided" : true,
            "name" : "Props",
            "pbrMetallicRoughness" : {
                "baseColorFactor" : [
                    0.019607843831181526,
                    0.019607843831181526,
                    0.019607843831181526,
                    1
                ],
                "metallicFactor" : 1,
                "roughnessFactor" : 0.3272828757762909
            }
        }
    ],
    "meshes" : [
        {
            "name" : "Mesh.001",
            "primitives" : [
                {
                    "attributes" : {
                        "POSITION" : 0,
                        "NORMAL" : 1,
                        "TEXCOORD_0" : 2
                    },
                    "indices" : 3,
                    "material" : 0
                },
                {
                    "attributes" : {
                        "POSITION" : 4,
                        "NORMAL" : 5,
                        "TEXCOORD_0" : 6
                    },
                    "indices" : 7,
                    "material" : 1
                }
            ]
        }
    ],
    "accessors" : [
        {
            "bufferView" : 0,
            "componentType" : 5126,
            "count" : 7628,
            "max" : [
                0.24065591394901276,
                1.844199299812317,
                0.04478531330823898
            ],
            "min" : [
                -0.24065591394901276,
                -6.102525844653428e-07,
                -0.072621189057827
            ],
            "type" : "VEC3"
        },
        {
            "bufferView" : 1,
            "componentType" : 5126,
            "count" : 7628,
            "type" : "VEC3"
        },
        {
            "bufferView" : 2,
            "componentType" : 5126,
            "count" : 7628,
            "type" : "VEC2"
        },
        {
            "bufferView" : 3,
            "componentType" : 5123,
            "count" : 32010,
            "type" : "SCALAR"
        },
        {
            "bufferView" : 4,
            "componentType" : 5126,
            "count" : 2098,
            "max" : [
                0.1385495960712433,
                0.4262601435184479,
                0.009116986766457558
            ],
            "min" : [
                -0.13854962587356567,
                0.08182907104492188,
                -0.053282514214515686
            ],
            "type" : "VEC3"
        },
        {
            "bufferView" : 5,
            "componentType" : 5126,
            "count" : 2098,
            "type" : "VEC3"
        },
        {
            "bufferView" : 6,
            "componentType" : 5126,
            "count" : 2098,
            "type" : "VEC2"
        },
        {
            "bufferView" : 7,
            "componentType" : 5123,
            "count" : 5532,
            "type" : "SCALAR"
        }
    ],
    "bufferViews" : [
        {
            "buffer" : 0,
            "byteLength" : 91536,
            "byteOffset" : 0
        },
        {
            "buffer" : 0,
            "byteLength" : 91536,
            "byteOffset" : 91536
        },
        {
            "buffer" : 0,
            "byteLength" : 61024,
            "byteOffset" : 183072
        },
        {
            "buffer" : 0,
            "byteLength" : 64020,
            "byteOffset" : 244096
        },
        {
            "buffer" : 0,
            "byteLength" : 25176,
            "byteOffset" : 308116
        },
        {
            "buffer" : 0,
            "byteLength" : 25176,
            "byteOffset" : 333292
        },
        {
            "buffer" : 0,
            "byteLength" : 16784,
            "byteOffset" : 358468
        },
        {
            "buffer" : 0,
            "byteLength" : 11064,
            "byteOffset" : 375252
        }
    ],
    "buffers" : [
        {
            "byteLength" : 386316,
            "uri" : "data:application/octet-stream;base64,"
        }
    ]
}
