{
    "asset" : {
        "generator" : "Khronos glTF Blender I/O v0.9.36",
        "version" : "2.0"
    },
    "scene" : 0,
    "scenes" : [
        {
            "name" : "Scene",
            "nodes" : [
                2
            ]
        }
    ],
    "nodes" : [
        {
            "mesh" : 0,
            "name" : "CasualOutfit"
        },
        {
            "mesh" : 1,
            "name" : "CasualOutfit_Int"
        },
        {
            "children" : [
                0,
                1
            ],
            "name" : "Casual Outfit 57_21325",
            "rotation" : [
                0.7071068286895752,
                0,
                0,
                0.7071067094802856
            ],
            "scale" : [
                0.009999999776482582,
                0.009999999776482582,
                0.009999999776482582
            ]
        }
    ],
    "materials" : [
        {
            "doubleSided" : true,
            "name" : "Casual Outfit 57.001",
            "normalTexture" : {
                "index" : 0,
                "texCoord" : 0
            },
            "pbrMetallicRoughness" : {
                "baseColorTexture" : {
                    "index" : 1,
                    "texCoord" : 0
                },
                "metallicFactor" : 1,
                "roughnessFactor" : 0.7137832641601562
            }
        }
    ],
    "meshes" : [
        {
            "name" : "Mesh",
            "primitives" : [
                {
                    "attributes" : {
                        "POSITION" : 0,
                        "NORMAL" : 1,
                        "TEXCOORD_0" : 2
                    },
                    "indices" : 3,
                    "material" : 0
                }
            ]
        },
        {
            "name" : "Mesh.001",
            "primitives" : [
                {
                    "attributes" : {
                        "POSITION" : 4,
                        "NORMAL" : 5,
                        "TEXCOORD_0" : 6
                    },
                    "indices" : 7,
                    "material" : 0
                }
            ]
        }
    ],
    "textures" : [
        {
            "source" : 0
        },
        {
            "source" : 1
        }
    ],
    "images" : [
        {
            "bufferView" : 4,
            "mimeType" : "image/jpeg",
            "name" : "Casual Outfit 57-N"
        },
        {
            "bufferView" : 5,
            "mimeType" : "image/jpeg",
            "name" : "Casual Outfit 57-T"
        }
    ],
    "accessors" : [
        {
            "bufferView" : 0,
            "componentType" : 5126,
            "count" : 24054,
            "max" : [
                43.97260284423828,
                18.538358688354492,
                0.7571966648101807
            ],
            "min" : [
                -44.50665283203125,
                -16.81977081298828,
                -159.10833740234375
            ],
            "type" : "VEC3"
        },
        {
            "bufferView" : 1,
            "componentType" : 5126,
            "count" : 24054,
            "type" : "VEC3"
        },
        {
            "bufferView" : 2,
            "componentType" : 5126,
            "count" : 24054,
            "type" : "VEC2"
        },
        {
            "bufferView" : 3,
            "componentType" : 5123,
            "count" : 127656,
            "type" : "SCALAR"
        },
        {
            "bufferView" : 6,
            "componentType" : 5126,
            "count" : 24054,
            "max" : [
                43.97260284423828,
                18.538358688354492,
                0.7571966648101807
            ],
            "min" : [
                -44.50665283203125,
                -16.81977081298828,
                -159.10833740234375
            ],
            "type" : "VEC3"
        },
        {
            "bufferView" : 7,
            "componentType" : 5126,
            "count" : 24054,
            "type" : "VEC3"
        },
        {
            "bufferView" : 8,
            "componentType" : 5126,
            "count" : 24054,
            "type" : "VEC2"
        },
        {
            "bufferView" : 9,
            "componentType" : 5123,
            "count" : 127656,
            "type" : "SCALAR"
        }
    ],
    "bufferViews" : [
        {
            "buffer" : 0,
            "byteLength" : 288648,
            "byteOffset" : 0
        },
        {
            "buffer" : 0,
            "byteLength" : 288648,
            "byteOffset" : 288648
        },
        {
            "buffer" : 0,
            "byteLength" : 192432,
            "byteOffset" : 577296
        },
        {
            "buffer" : 0,
            "byteLength" : 255312,
            "byteOffset" : 769728
        },
        {
            "buffer" : 0,
            "byteLength" : 110147,
            "byteOffset" : 1025040
        },
        {
            "buffer" : 0,
            "byteLength" : 145328,
            "byteOffset" : 1135188
        },
        {
            "buffer" : 0,
            "byteLength" : 288648,
            "byteOffset" : 1280516
        },
        {
            "buffer" : 0,
            "byteLength" : 288648,
            "byteOffset" : 1569164
        },
        {
            "buffer" : 0,
            "byteLength" : 192432,
            "byteOffset" : 1857812
        },
        {
            "buffer" : 0,
            "byteLength" : 255312,
            "byteOffset" : 2050244
        }
    ],
    "buffers" : [
        {
            "byteLength" : 2305556,
            "uri" : "data:application/octet-stream;base64,"
        }
    ]
}
