{
    "asset" : {
        "generator" : "Khronos glTF Blender I/O v0.9.36",
        "version" : "2.0"
    },
    "scene" : 0,
    "scenes" : [
        {
            "name" : "Scene",
            "nodes" : [
                0
            ]
        }
    ],
    "nodes" : [
        {
            "mesh" : 0,
            "name" : "MaderKit_Demo"
        }
    ],
    "materials" : [
        {
            "doubleSided" : true,
            "name" : "NOVOPAN_Blanco",
            "pbrMetallicRoughness" : {
                "baseColorTexture" : {
                    "index" : 0,
                    "texCoord" : 0
                },
                "metallicFactor" : 0,
                "roughnessFactor" : 0.20000000298023224
            }
        },
        {
            "doubleSided" : true,
            "name" : "NOVOPAN_Duna",
            "pbrMetallicRoughness" : {
                "baseColorTexture" : {
                    "index" : 1,
                    "texCoord" : 0
                },
                "metallicFactor" : 0,
                "roughnessFactor" : 0.5
            }
        },
        {
            "doubleSided" : true,
            "name" : "Pintura_Electrostarica_Negra",
            "pbrMetallicRoughness" : {
                "baseColorFactor" : [
                    0.01568627543747425,
                    0.01568627543747425,
                    0.01568627543747425,
                    1
                ],
                "metallicFactor" : 1,
                "roughnessFactor" : 0.5527864098548889
            }
        }
    ],
    "meshes" : [
        {
            "name" : "Object_8",
            "primitives" : [
                {
                    "attributes" : {
                        "POSITION" : 0,
                        "TEXCOORD_0" : 1
                    },
                    "indices" : 2,
                    "material" : 0
                },
                {
                    "attributes" : {
                        "POSITION" : 3,
                        "TEXCOORD_0" : 4
                    },
                    "indices" : 5,
                    "material" : 1
                },
                {
                    "attributes" : {
                        "POSITION" : 6,
                        "TEXCOORD_0" : 7
                    },
                    "indices" : 8,
                    "material" : 2
                }
            ]
        }
    ],
    "textures" : [
        {
            "source" : 0
        },
        {
            "source" : 1
        }
    ],
    "images" : [
        {
            "bufferView" : 3,
            "mimeType" : "image/jpeg",
            "name" : "NOVOPAN_Blanco_Neo_d"
        },
        {
            "bufferView" : 7,
            "mimeType" : "image/png",
            "name" : "wood_particle_board_Base_Color"
        }
    ],
    "accessors" : [
        {
            "bufferView" : 0,
            "componentType" : 5126,
            "count" : 144,
            "max" : [
                0.17525099217891693,
                0.4515058100223541,
                0.15036292374134064
            ],
            "min" : [
                -0.17474903166294098,
                0.1595057249069214,
                -0.15233714878559113
            ],
            "type" : "VEC3"
        },
        {
            "bufferView" : 1,
            "componentType" : 5126,
            "count" : 144,
            "type" : "VEC2"
        },
        {
            "bufferView" : 2,
            "componentType" : 5123,
            "count" : 216,
            "type" : "SCALAR"
        },
        {
            "bufferView" : 4,
            "componentType" : 5126,
            "count" : 24,
            "max" : [
                0.1562509834766388,
                0.33050575852394104,
                0.14986075460910797
            ],
            "min" : [
                -0.15574902296066284,
                0.17850573360919952,
                0.1403607279062271
            ],
            "type" : "VEC3"
        },
        {
            "bufferView" : 5,
            "componentType" : 5126,
            "count" : 24,
            "type" : "VEC2"
        },
        {
            "bufferView" : 6,
            "componentType" : 5123,
            "count" : 36,
            "type" : "SCALAR"
        },
        {
            "bufferView" : 8,
            "componentType" : 5126,
            "count" : 2378,
            "max" : [
                0.17567676305770874,
                0.2694408595561981,
                0.17132891714572906
            ],
            "min" : [
                -0.1756768822669983,
                -0.0029686030466109514,
                -0.15098418295383453
            ],
            "type" : "VEC3"
        },
        {
            "bufferView" : 9,
            "componentType" : 5126,
            "count" : 2378,
            "type" : "VEC2"
        },
        {
            "bufferView" : 10,
            "componentType" : 5123,
            "count" : 11658,
            "type" : "SCALAR"
        }
    ],
    "bufferViews" : [
        {
            "buffer" : 0,
            "byteLength" : 1728,
            "byteOffset" : 0
        },
        {
            "buffer" : 0,
            "byteLength" : 1152,
            "byteOffset" : 1728
        },
        {
            "buffer" : 0,
            "byteLength" : 432,
            "byteOffset" : 2880
        },
        {
            "buffer" : 0,
            "byteLength" : 182232,
            "byteOffset" : 3312
        },
        {
            "buffer" : 0,
            "byteLength" : 288,
            "byteOffset" : 185544
        },
        {
            "buffer" : 0,
            "byteLength" : 192,
            "byteOffset" : 185832
        },
        {
            "buffer" : 0,
            "byteLength" : 72,
            "byteOffset" : 186024
        },
        {
            "buffer" : 0,
            "byteLength" : 255033,
            "byteOffset" : 186096
        },
        {
            "buffer" : 0,
            "byteLength" : 28536,
            "byteOffset" : 441132
        },
        {
            "buffer" : 0,
            "byteLength" : 19024,
            "byteOffset" : 469668
        },
        {
            "buffer" : 0,
            "byteLength" : 23316,
            "byteOffset" : 488692
        }
    ],
    "buffers" : [
        {
            "byteLength" : 512008,
            "uri" : "data:application/octet-stream;base64,"
        }
    ]
}
