{
    "asset" : {
        "generator" : "Khronos glTF Blender I/O v0.9.36",
        "version" : "2.0"
    },
    "scene" : 0,
    "scenes" : [
        {
            "name" : "Scene",
            "nodes" : [
                3
            ]
        }
    ],
    "nodes" : [
        {
            "name" : "Rotator",
            "rotation" : [
                -0.5,
                0.5,
                0.4999999701976776,
                0.4999999701976776
            ],
            "scale" : [
                1,
                0.9999999403953552,
                1
            ],
            "translation" : [
                0,
                0.06019127368927002,
                0
            ]
        },
        {
            "children" : [
                0
            ],
            "name" : "Root"
        },
        {
            "mesh" : 0,
            "name" : "H_Piece_01",
            "skin" : 0,
            "translation" : [
                0.22951099276542664,
                0.06070774793624878,
                -0.20996268093585968
            ]
        },
        {
            "children" : [
                2,
                1
            ],
            "name" : "Armature",
            "translation" : [
                -0.044504135847091675,
                -0.08065997064113617,
                0
            ]
        }
    ],
    "animations" : [
        {
            "channels" : [
                {
                    "sampler" : 0,
                    "target" : {
                        "node" : 1,
                        "path" : "translation"
                    }
                },
                {
                    "sampler" : 1,
                    "target" : {
                        "node" : 1,
                        "path" : "rotation"
                    }
                },
                {
                    "sampler" : 2,
                    "target" : {
                        "node" : 1,
                        "path" : "scale"
                    }
                },
                {
                    "sampler" : 3,
                    "target" : {
                        "node" : 0,
                        "path" : "translation"
                    }
                },
                {
                    "sampler" : 4,
                    "target" : {
                        "node" : 0,
                        "path" : "rotation"
                    }
                },
                {
                    "sampler" : 5,
                    "target" : {
                        "node" : 0,
                        "path" : "scale"
                    }
                }
            ],
            "name" : "ArmatureAction",
            "samplers" : [
                {
                    "input" : 7,
                    "interpolation" : "LINEAR",
                    "output" : 8
                },
                {
                    "input" : 7,
                    "interpolation" : "LINEAR",
                    "output" : 9
                },
                {
                    "input" : 7,
                    "interpolation" : "LINEAR",
                    "output" : 10
                },
                {
                    "input" : 7,
                    "interpolation" : "LINEAR",
                    "output" : 11
                },
                {
                    "input" : 7,
                    "interpolation" : "LINEAR",
                    "output" : 12
                },
                {
                    "input" : 7,
                    "interpolation" : "LINEAR",
                    "output" : 13
                }
            ]
        }
    ],
    "materials" : [
        {
            "doubleSided" : true,
            "name" : "Mat_PipeCrossSection",
            "pbrMetallicRoughness" : {
                "baseColorTexture" : {
                    "index" : 0,
                    "texCoord" : 0
                },
                "metallicFactor" : 0,
                "metallicRoughnessTexture" : {
                    "index" : 1,
                    "texCoord" : 0
                }
            }
        }
    ],
    "meshes" : [
        {
            "name" : "Cylinder.006",
            "primitives" : [
                {
                    "attributes" : {
                        "POSITION" : 0,
                        "NORMAL" : 1,
                        "TEXCOORD_0" : 2,
                        "JOINTS_0" : 3,
                        "WEIGHTS_0" : 4
                    },
                    "indices" : 5,
                    "material" : 0
                }
            ]
        }
    ],
    "textures" : [
        {
            "source" : 0
        },
        {
            "source" : 1
        }
    ],
    "images" : [
        {
            "bufferView" : 6,
            "mimeType" : "image/png",
            "name" : "T_Pipe_CrossSection_albedo"
        },
        {
            "bufferView" : 7,
            "mimeType" : "image/png",
            "name" : "T_Pipe_CrossSection_roughness"
        }
    ],
    "skins" : [
        {
            "inverseBindMatrices" : 6,
            "joints" : [
                1,
                0
            ],
            "name" : "Armature"
        }
    ],
    "accessors" : [
        {
            "bufferView" : 0,
            "componentType" : 5126,
            "count" : 2666,
            "max" : [
                0.3612689971923828,
                0.45128577947616577,
                0.20996281504631042
            ],
            "min" : [
                -0.6978975534439087,
                -0.4506593942642212,
                -0.24100995063781738
            ],
            "type" : "VEC3"
        },
        {
            "bufferView" : 1,
            "componentType" : 5126,
            "count" : 2666,
            "type" : "VEC3"
        },
        {
            "bufferView" : 2,
            "componentType" : 5126,
            "count" : 2666,
            "type" : "VEC2"
        },
        {
            "bufferView" : 3,
            "componentType" : 5123,
            "count" : 2666,
            "type" : "VEC4"
        },
        {
            "bufferView" : 4,
            "componentType" : 5126,
            "count" : 2666,
            "type" : "VEC4"
        },
        {
            "bufferView" : 5,
            "componentType" : 5123,
            "count" : 12774,
            "type" : "SCALAR"
        },
        {
            "bufferView" : 8,
            "componentType" : 5126,
            "count" : 2,
            "type" : "MAT4"
        },
        {
            "bufferView" : 9,
            "componentType" : 5126,
            "count" : 121,
            "max" : [
                5
            ],
            "min" : [
                0
            ],
            "type" : "SCALAR"
        },
        {
            "bufferView" : 10,
            "componentType" : 5126,
            "count" : 121,
            "type" : "VEC3"
        },
        {
            "bufferView" : 11,
            "componentType" : 5126,
            "count" : 121,
            "type" : "VEC4"
        },
        {
            "bufferView" : 12,
            "componentType" : 5126,
            "count" : 121,
            "type" : "VEC3"
        },
        {
            "bufferView" : 13,
            "componentType" : 5126,
            "count" : 121,
            "type" : "VEC3"
        },
        {
            "bufferView" : 14,
            "componentType" : 5126,
            "count" : 121,
            "type" : "VEC4"
        },
        {
            "bufferView" : 15,
            "componentType" : 5126,
            "count" : 121,
            "type" : "VEC3"
        }
    ],
    "bufferViews" : [
        {
            "buffer" : 0,
            "byteLength" : 31992,
            "byteOffset" : 0
        },
        {
            "buffer" : 0,
            "byteLength" : 31992,
            "byteOffset" : 31992
        },
        {
            "buffer" : 0,
            "byteLength" : 21328,
            "byteOffset" : 63984
        },
        {
            "buffer" : 0,
            "byteLength" : 21328,
            "byteOffset" : 85312
        },
        {
            "buffer" : 0,
            "byteLength" : 42656,
            "byteOffset" : 106640
        },
        {
            "buffer" : 0,
            "byteLength" : 25548,
            "byteOffset" : 149296
        },
        {
            "buffer" : 0,
            "byteLength" : 98279,
            "byteOffset" : 174844
        },
        {
            "buffer" : 0,
            "byteLength" : 1546444,
            "byteOffset" : 273124
        },
        {
            "buffer" : 0,
            "byteLength" : 128,
            "byteOffset" : 1819568
        },
        {
            "buffer" : 0,
            "byteLength" : 484,
            "byteOffset" : 1819696
        },
        {
            "buffer" : 0,
            "byteLength" : 1452,
            "byteOffset" : 1820180
        },
        {
            "buffer" : 0,
            "byteLength" : 1936,
            "byteOffset" : 1821632
        },
        {
            "buffer" : 0,
            "byteLength" : 1452,
            "byteOffset" : 1823568
        },
        {
            "buffer" : 0,
            "byteLength" : 1452,
            "byteOffset" : 1825020
        },
        {
            "buffer" : 0,
            "byteLength" : 1936,
            "byteOffset" : 1826472
        },
        {
            "buffer" : 0,
            "byteLength" : 1452,
            "byteOffset" : 1828408
        }
    ],
    "buffers" : [
        {
            "byteLength" : 1829860,
            "uri" : "data:application/octet-stream;base64,"
        }
    ]
}
