{
    "asset" : {
        "generator" : "Khronos glTF Blender I/O v0.9.36",
        "version" : "2.0"
    },
    "scene" : 0,
    "scenes" : [
        {
            "name" : "Scene",
            "nodes" : [
                0,
                1
            ]
        }
    ],
    "nodes" : [
        {
            "mesh" : 0,
            "name" : "Mannequin",
            "scale" : [
                0.014230947010219097,
                0.014230947010219097,
                0.014230947010219097
            ],
            "translation" : [
                0,
                -0.8069387674331665,
                -0.005657276604324579
            ]
        },
        {
            "mesh" : 1,
            "name" : "Swimsuit",
            "scale" : [
                0.014643999747931957,
                0.014643999747931957,
                0.014643999747931957
            ],
            "translation" : [
                0,
                0.3202695846557617,
                -0.005657320376485586
            ]
        }
    ],
    "materials" : [
        {
            "doubleSided" : true,
            "name" : "Mannequin_Mat",
            "pbrMetallicRoughness" : {
                "baseColorFactor" : [
                    1,
                    1,
                    1,
                    1
                ],
                "metallicFactor" : 1,
                "roughnessFactor" : 0.858578622341156
            }
        },
        {
            "doubleSided" : true,
            "name" : "SwimSuit_Mat.002",
            "normalTexture" : {
                "index" : 0,
                "scale" : 0.04200504347681999,
                "texCoord" : 0
            },
            "pbrMetallicRoughness" : {
                "baseColorTexture" : {
                    "index" : 1,
                    "texCoord" : 0
                },
                "metallicFactor" : 1,
                "roughnessFactor" : 0.858578622341156
            }
        }
    ],
    "meshes" : [
        {
            "name" : "Mesh.002",
            "primitives" : [
                {
                    "attributes" : {
                        "POSITION" : 0,
                        "NORMAL" : 1,
                        "TEXCOORD_0" : 2
                    },
                    "indices" : 3,
                    "material" : 0
                }
            ]
        },
        {
            "name" : "Mesh.003",
            "primitives" : [
                {
                    "attributes" : {
                        "POSITION" : 4,
                        "NORMAL" : 5,
                        "TEXCOORD_0" : 6
                    },
                    "indices" : 7,
                    "material" : 1
                }
            ]
        }
    ],
    "textures" : [
        {
            "source" : 0
        },
        {
            "source" : 1
        }
    ],
    "images" : [
        {
            "bufferView" : 8,
            "mimeType" : "image/png",
            "name" : "SwimSuit_Normal"
        },
        {
            "bufferView" : 9,
            "mimeType" : "image/png",
            "name" : "SwimSuit_AlbedoTransparency"
        }
    ],
    "accessors" : [
        {
            "bufferView" : 0,
            "componentType" : 5126,
            "count" : 8376,
            "max" : [
                27.175765991210938,
                162.33836364746094,
                13.275839805603027
            ],
            "min" : [
                -27.175765991210938,
                80,
                -11.860886573791504
            ],
            "type" : "VEC3"
        },
        {
            "bufferView" : 1,
            "componentType" : 5126,
            "count" : 8376,
            "type" : "VEC3"
        },
        {
            "bufferView" : 2,
            "componentType" : 5126,
            "count" : 8376,
            "type" : "VEC2"
        },
        {
            "bufferView" : 3,
            "componentType" : 5123,
            "count" : 38628,
            "type" : "SCALAR"
        },
        {
            "bufferView" : 4,
            "componentType" : 5126,
            "count" : 6740,
            "max" : [
                15.910638809204102,
                70.60277557373047,
                16.91874122619629
            ],
            "min" : [
                -15.910615921020508,
                -21.933353424072266,
                -13.460905075073242
            ],
            "type" : "VEC3"
        },
        {
            "bufferView" : 5,
            "componentType" : 5126,
            "count" : 6740,
            "type" : "VEC3"
        },
        {
            "bufferView" : 6,
            "componentType" : 5126,
            "count" : 6740,
            "type" : "VEC2"
        },
        {
            "bufferView" : 7,
            "componentType" : 5123,
            "count" : 35898,
            "type" : "SCALAR"
        }
    ],
    "bufferViews" : [
        {
            "buffer" : 0,
            "byteLength" : 100512,
            "byteOffset" : 0
        },
        {
            "buffer" : 0,
            "byteLength" : 100512,
            "byteOffset" : 100512
        },
        {
            "buffer" : 0,
            "byteLength" : 67008,
            "byteOffset" : 201024
        },
        {
            "buffer" : 0,
            "byteLength" : 77256,
            "byteOffset" : 268032
        },
        {
            "buffer" : 0,
            "byteLength" : 80880,
            "byteOffset" : 345288
        },
        {
            "buffer" : 0,
            "byteLength" : 80880,
            "byteOffset" : 426168
        },
        {
            "buffer" : 0,
            "byteLength" : 53920,
            "byteOffset" : 507048
        },
        {
            "buffer" : 0,
            "byteLength" : 71796,
            "byteOffset" : 560968
        },
        {
            "buffer" : 0,
            "byteLength" : 183279,
            "byteOffset" : 632764
        },
        {
            "buffer" : 0,
            "byteLength" : 368691,
            "byteOffset" : 816044
        }
    ],
    "buffers" : [
        {
            "byteLength" : 1184736,
            "uri" : "data:application/octet-stream;base64,"
        }
    ]
}
