{
    "asset" : {
        "generator" : "Khronos glTF Blender I/O v0.9.36",
        "version" : "2.0"
    },
    "scene" : 0,
    "scenes" : [
        {
            "name" : "Scene",
            "nodes" : [
                0,
                1,
                2
            ]
        }
    ],
    "nodes" : [
        {
            "name" : "Light",
            "rotation" : [
                0.16907575726509094,
                0.7558803558349609,
                -0.27217137813568115,
                0.570947527885437
            ],
            "translation" : [
                4.076245307922363,
                5.903861999511719,
                -1.0054539442062378
            ]
        },
        {
            "name" : "Camera",
            "rotation" : [
                0.483536034822464,
                0.33687159419059753,
                -0.20870360732078552,
                0.7804827094078064
            ],
            "translation" : [
                7.358891487121582,
                4.958309173583984,
                6.925790786743164
            ]
        },
        {
            "mesh" : 0,
            "name" : "SM_Bushwacher",
            "rotation" : [
                0.7071068286895752,
                0,
                0,
                0.7071067094802856
            ],
            "scale" : [
                0.009609999135136604,
                0.009609999135136604,
                0.009609999135136604
            ],
            "translation" : [
                0,
                0.9689799547195435,
                -0.009028660133481026
            ]
        }
    ],
    "materials" : [
        {
            "doubleSided" : true,
            "name" : "Body.011",
            "pbrMetallicRoughness" : {
                "baseColorFactor" : [
                    0.7960785031318665,
                    0.7960785031318665,
                    0.7960785031318665,
                    1
                ],
                "metallicFactor" : 1,
                "roughnessFactor" : 0.8398845791816711
            }
        },
        {
            "doubleSided" : true,
            "name" : "Props.011",
            "pbrMetallicRoughness" : {
                "baseColorFactor" : [
                    0.011764707043766975,
                    0.011764707043766975,
                    0.011764707043766975,
                    1
                ],
                "metallicFactor" : 1,
                "roughnessFactor" : 0.7171573042869568
            }
        }
    ],
    "meshes" : [
        {
            "name" : "Mesh.011",
            "primitives" : [
                {
                    "attributes" : {
                        "POSITION" : 0,
                        "NORMAL" : 1,
                        "TEXCOORD_0" : 2
                    },
                    "indices" : 3,
                    "material" : 0
                },
                {
                    "attributes" : {
                        "POSITION" : 4,
                        "NORMAL" : 5,
                        "TEXCOORD_0" : 6
                    },
                    "indices" : 7,
                    "material" : 1
                }
            ]
        }
    ],
    "accessors" : [
        {
            "bufferView" : 0,
            "componentType" : 5126,
            "count" : 2991,
            "max" : [
                27.102603912353516,
                8.999094009399414,
                100.83133697509766
            ],
            "min" : [
                -27.102603912353516,
                -3.2448501586914062,
                -93.0745849609375
            ],
            "type" : "VEC3"
        },
        {
            "bufferView" : 1,
            "componentType" : 5126,
            "count" : 2991,
            "type" : "VEC3"
        },
        {
            "bufferView" : 2,
            "componentType" : 5126,
            "count" : 2991,
            "type" : "VEC2"
        },
        {
            "bufferView" : 3,
            "componentType" : 5123,
            "count" : 17202,
            "type" : "SCALAR"
        },
        {
            "bufferView" : 4,
            "componentType" : 5126,
            "count" : 3298,
            "max" : [
                17.038084030151367,
                4.628025054931641,
                91.08110046386719
            ],
            "min" : [
                -17.038084030151367,
                -1.6156786680221558,
                51.94391632080078
            ],
            "type" : "VEC3"
        },
        {
            "bufferView" : 5,
            "componentType" : 5126,
            "count" : 3298,
            "type" : "VEC3"
        },
        {
            "bufferView" : 6,
            "componentType" : 5126,
            "count" : 3298,
            "type" : "VEC2"
        },
        {
            "bufferView" : 7,
            "componentType" : 5123,
            "count" : 8676,
            "type" : "SCALAR"
        }
    ],
    "bufferViews" : [
        {
            "buffer" : 0,
            "byteLength" : 35892,
            "byteOffset" : 0
        },
        {
            "buffer" : 0,
            "byteLength" : 35892,
            "byteOffset" : 35892
        },
        {
            "buffer" : 0,
            "byteLength" : 23928,
            "byteOffset" : 71784
        },
        {
            "buffer" : 0,
            "byteLength" : 34404,
            "byteOffset" : 95712
        },
        {
            "buffer" : 0,
            "byteLength" : 39576,
            "byteOffset" : 130116
        },
        {
            "buffer" : 0,
            "byteLength" : 39576,
            "byteOffset" : 169692
        },
        {
            "buffer" : 0,
            "byteLength" : 26384,
            "byteOffset" : 209268
        },
        {
            "buffer" : 0,
            "byteLength" : 17352,
            "byteOffset" : 235652
        }
    ],
    "buffers" : [
        {
            "byteLength" : 253004,
            "uri" : "data:application/octet-stream;base64,"
        }
    ]
}
