{
    "asset" : {
        "generator" : "Khronos glTF Blender I/O v0.9.36",
        "version" : "2.0"
    },
    "scene" : 0,
    "scenes" : [
        {
            "name" : "Scene",
            "nodes" : [
                0,
                1,
                2
            ]
        }
    ],
    "nodes" : [
        {
            "name" : "Light",
            "rotation" : [
                0.16907575726509094,
                0.7558803558349609,
                -0.27217137813568115,
                0.570947527885437
            ],
            "translation" : [
                4.076245307922363,
                5.903861999511719,
                -1.0054539442062378
            ]
        },
        {
            "name" : "Camera",
            "rotation" : [
                0.483536034822464,
                0.33687159419059753,
                -0.20870360732078552,
                0.7804827094078064
            ],
            "translation" : [
                7.358891487121582,
                4.958309173583984,
                6.925790786743164
            ]
        },
        {
            "mesh" : 0,
            "name" : "SM_Bushwacher",
            "rotation" : [
                0.7071068286895752,
                0,
                0,
                0.7071067094802856
            ],
            "scale" : [
                0.009609999135136604,
                0.009609999135136604,
                0.009609999135136604
            ],
            "translation" : [
                0,
                0.9095513820648193,
                -0.009028660133481026
            ]
        }
    ],
    "materials" : [
        {
            "doubleSided" : true,
            "name" : "01 - Default.002",
            "pbrMetallicRoughness" : {
                "baseColorFactor" : [
                    0.803921639919281,
                    0.803921639919281,
                    0.803921639919281,
                    1
                ],
                "metallicFactor" : 1,
                "roughnessFactor" : 0.8318207263946533
            }
        },
        {
            "doubleSided" : true,
            "name" : "shd_2.002",
            "pbrMetallicRoughness" : {
                "baseColorFactor" : [
                    0.019607843831181526,
                    0.019607843831181526,
                    0.019607843831181526,
                    1
                ],
                "metallicFactor" : 1,
                "roughnessFactor" : 0.3272828757762909
            }
        }
    ],
    "meshes" : [
        {
            "name" : "Mesh.003",
            "primitives" : [
                {
                    "attributes" : {
                        "POSITION" : 0,
                        "NORMAL" : 1,
                        "TEXCOORD_0" : 2
                    },
                    "indices" : 3,
                    "material" : 0
                },
                {
                    "attributes" : {
                        "POSITION" : 4,
                        "NORMAL" : 5,
                        "TEXCOORD_0" : 6
                    },
                    "indices" : 7,
                    "material" : 1
                }
            ]
        }
    ],
    "accessors" : [
        {
            "bufferView" : 0,
            "componentType" : 5126,
            "count" : 11464,
            "max" : [
                27.102603912353516,
                8.999094009399414,
                94.58773803710938
            ],
            "min" : [
                -27.102603912353516,
                -3.2448501586914062,
                -93.0745849609375
            ],
            "type" : "VEC3"
        },
        {
            "bufferView" : 1,
            "componentType" : 5126,
            "count" : 11464,
            "type" : "VEC3"
        },
        {
            "bufferView" : 2,
            "componentType" : 5126,
            "count" : 11464,
            "type" : "VEC2"
        },
        {
            "bufferView" : 3,
            "componentType" : 5123,
            "count" : 17196,
            "type" : "SCALAR"
        },
        {
            "bufferView" : 4,
            "componentType" : 5126,
            "count" : 6092,
            "max" : [
                17.038084030151367,
                4.628025054931641,
                91.08110046386719
            ],
            "min" : [
                -17.038084030151367,
                -1.6156786680221558,
                51.94391632080078
            ],
            "type" : "VEC3"
        },
        {
            "bufferView" : 5,
            "componentType" : 5126,
            "count" : 6092,
            "type" : "VEC3"
        },
        {
            "bufferView" : 6,
            "componentType" : 5126,
            "count" : 6092,
            "type" : "VEC2"
        },
        {
            "bufferView" : 7,
            "componentType" : 5123,
            "count" : 8676,
            "type" : "SCALAR"
        }
    ],
    "bufferViews" : [
        {
            "buffer" : 0,
            "byteLength" : 137568,
            "byteOffset" : 0
        },
        {
            "buffer" : 0,
            "byteLength" : 137568,
            "byteOffset" : 137568
        },
        {
            "buffer" : 0,
            "byteLength" : 91712,
            "byteOffset" : 275136
        },
        {
            "buffer" : 0,
            "byteLength" : 34392,
            "byteOffset" : 366848
        },
        {
            "buffer" : 0,
            "byteLength" : 73104,
            "byteOffset" : 401240
        },
        {
            "buffer" : 0,
            "byteLength" : 73104,
            "byteOffset" : 474344
        },
        {
            "buffer" : 0,
            "byteLength" : 48736,
            "byteOffset" : 547448
        },
        {
            "buffer" : 0,
            "byteLength" : 17352,
            "byteOffset" : 596184
        }
    ],
    "buffers" : [
        {
            "byteLength" : 613536,
            "uri" : "data:application/octet-stream;base64,"
        }
    ]
}
