{
    "asset" : {
        "generator" : "Khronos glTF Blender I/O v0.9.36",
        "version" : "2.0"
    },
    "scene" : 0,
    "scenes" : [
        {
            "name" : "Scene",
            "nodes" : [
                0
            ]
        }
    ],
    "nodes" : [
        {
            "mesh" : 0,
            "name" : "SM_Bushwacker",
            "rotation" : [
                0.7071068286895752,
                0,
                0,
                0.7071067094802856
            ],
            "scale" : [
                0.009609999135136604,
                0.009609999135136604,
                0.009609999135136604
            ],
            "translation" : [
                0,
                0.9689799547195435,
                -0.009028660133481026
            ]
        }
    ],
    "materials" : [
        {
            "doubleSided" : true,
            "name" : "Body.002",
            "pbrMetallicRoughness" : {
                "baseColorTexture" : {
                    "index" : 0,
                    "texCoord" : 0
                },
                "metallicFactor" : 1,
                "roughnessFactor" : 0.7171573042869568
            }
        },
        {
            "doubleSided" : true,
            "name" : "Props.002",
            "pbrMetallicRoughness" : {
                "baseColorFactor" : [
                    0.011764707043766975,
                    0.011764707043766975,
                    0.011764707043766975,
                    1
                ],
                "metallicFactor" : 1,
                "roughnessFactor" : 0.7171573042869568
            }
        }
    ],
    "meshes" : [
        {
            "name" : "Mesh.002",
            "primitives" : [
                {
                    "attributes" : {
                        "POSITION" : 0,
                        "NORMAL" : 1,
                        "TEXCOORD_0" : 2
                    },
                    "indices" : 3,
                    "material" : 0
                },
                {
                    "attributes" : {
                        "POSITION" : 4,
                        "NORMAL" : 5,
                        "TEXCOORD_0" : 6
                    },
                    "indices" : 7,
                    "material" : 1
                }
            ]
        }
    ],
    "textures" : [
        {
            "source" : 0
        }
    ],
    "images" : [
        {
            "bufferView" : 4,
            "mimeType" : "image/png",
            "name" : "T_Bushwacker_Low"
        }
    ],
    "accessors" : [
        {
            "bufferView" : 0,
            "componentType" : 5126,
            "count" : 2991,
            "max" : [
                27.102603912353516,
                8.999094009399414,
                100.83133697509766
            ],
            "min" : [
                -27.102603912353516,
                -3.2448501586914062,
                -93.0745849609375
            ],
            "type" : "VEC3"
        },
        {
            "bufferView" : 1,
            "componentType" : 5126,
            "count" : 2991,
            "type" : "VEC3"
        },
        {
            "bufferView" : 2,
            "componentType" : 5126,
            "count" : 2991,
            "type" : "VEC2"
        },
        {
            "bufferView" : 3,
            "componentType" : 5123,
            "count" : 17202,
            "type" : "SCALAR"
        },
        {
            "bufferView" : 5,
            "componentType" : 5126,
            "count" : 3295,
            "max" : [
                17.038084030151367,
                4.628025054931641,
                91.08110046386719
            ],
            "min" : [
                -17.038084030151367,
                -1.6156786680221558,
                51.94391632080078
            ],
            "type" : "VEC3"
        },
        {
            "bufferView" : 6,
            "componentType" : 5126,
            "count" : 3295,
            "type" : "VEC3"
        },
        {
            "bufferView" : 7,
            "componentType" : 5126,
            "count" : 3295,
            "type" : "VEC2"
        },
        {
            "bufferView" : 8,
            "componentType" : 5123,
            "count" : 8676,
            "type" : "SCALAR"
        }
    ],
    "bufferViews" : [
        {
            "buffer" : 0,
            "byteLength" : 35892,
            "byteOffset" : 0
        },
        {
            "buffer" : 0,
            "byteLength" : 35892,
            "byteOffset" : 35892
        },
        {
            "buffer" : 0,
            "byteLength" : 23928,
            "byteOffset" : 71784
        },
        {
            "buffer" : 0,
            "byteLength" : 34404,
            "byteOffset" : 95712
        },
        {
            "buffer" : 0,
            "byteLength" : 517477,
            "byteOffset" : 130116
        },
        {
            "buffer" : 0,
            "byteLength" : 39540,
            "byteOffset" : 647596
        },
        {
            "buffer" : 0,
            "byteLength" : 39540,
            "byteOffset" : 687136
        },
        {
            "buffer" : 0,
            "byteLength" : 26360,
            "byteOffset" : 726676
        },
        {
            "buffer" : 0,
            "byteLength" : 17352,
            "byteOffset" : 753036
        }
    ],
    "buffers" : [
        {
            "byteLength" : 770388,
            "uri" : "data:application/octet-stream;base64,"
        }
    ]
}
