{
    "asset" : {
        "generator" : "Khronos glTF Blender I/O v0.9.36",
        "version" : "2.0"
    },
    "scene" : 0,
    "scenes" : [
        {
            "name" : "Scene",
            "nodes" : [
                0
            ]
        }
    ],
    "nodes" : [
        {
            "mesh" : 0,
            "name" : "SM_CalTwin",
            "rotation" : [
                -0.70710688829422,
                0,
                0,
                0.7071067094802856
            ],
            "scale" : [
                -0.009451069869101048,
                -0.009451069869101048,
                -0.009451069869101048
            ],
            "translation" : [
                0,
                1.0354617834091187,
                -0.014053230173885822
            ]
        }
    ],
    "materials" : [
        {
            "doubleSided" : true,
            "name" : "Body",
            "pbrMetallicRoughness" : {
                "baseColorTexture" : {
                    "index" : 0,
                    "texCoord" : 0
                },
                "metallicFactor" : 1,
                "roughnessFactor" : 0.7171573042869568
            }
        }
    ],
    "meshes" : [
        {
            "name" : "Mesh",
            "primitives" : [
                {
                    "attributes" : {
                        "POSITION" : 0,
                        "NORMAL" : 1,
                        "TEXCOORD_0" : 2
                    },
                    "indices" : 3,
                    "material" : 0
                }
            ]
        }
    ],
    "textures" : [
        {
            "source" : 0
        }
    ],
    "images" : [
        {
            "bufferView" : 4,
            "mimeType" : "image/png",
            "name" : "T_CalTwin_Low"
        }
    ],
    "accessors" : [
        {
            "bufferView" : 0,
            "componentType" : 5126,
            "count" : 8464,
            "max" : [
                25.605674743652344,
                6.214312553405762,
                109.5605239868164
            ],
            "min" : [
                -25.605674743652344,
                -6.6342010498046875,
                -84.0773696899414
            ],
            "type" : "VEC3"
        },
        {
            "bufferView" : 1,
            "componentType" : 5126,
            "count" : 8464,
            "type" : "VEC3"
        },
        {
            "bufferView" : 2,
            "componentType" : 5126,
            "count" : 8464,
            "type" : "VEC2"
        },
        {
            "bufferView" : 3,
            "componentType" : 5123,
            "count" : 42276,
            "type" : "SCALAR"
        }
    ],
    "bufferViews" : [
        {
            "buffer" : 0,
            "byteLength" : 101568,
            "byteOffset" : 0
        },
        {
            "buffer" : 0,
            "byteLength" : 101568,
            "byteOffset" : 101568
        },
        {
            "buffer" : 0,
            "byteLength" : 67712,
            "byteOffset" : 203136
        },
        {
            "buffer" : 0,
            "byteLength" : 84552,
            "byteOffset" : 270848
        },
        {
            "buffer" : 0,
            "byteLength" : 115025,
            "byteOffset" : 355400
        }
    ],
    "buffers" : [
        {
            "byteLength" : 470428,
            "uri" : "data:application/octet-stream;base64,"
        }
    ]
}
