{
    "asset" : {
        "generator" : "Khronos glTF Blender I/O v0.9.36",
        "version" : "2.0"
    },
    "scene" : 0,
    "scenes" : [
        {
            "name" : "Scene",
            "nodes" : [
                0
            ]
        }
    ],
    "nodes" : [
        {
            "mesh" : 0,
            "name" : "SM_DeadlyFlyingTurtle",
            "rotation" : [
                0.7071068286895752,
                0,
                0,
                0.7071067094802856
            ],
            "scale" : [
                0.009999999776482582,
                0.009999999776482582,
                0.009999999776482582
            ],
            "translation" : [
                0,
                1.0209944248199463,
                0.016773942857980728
            ]
        }
    ],
    "materials" : [
        {
            "doubleSided" : true,
            "name" : "Body.001",
            "pbrMetallicRoughness" : {
                "baseColorTexture" : {
                    "index" : 0,
                    "texCoord" : 0
                },
                "metallicFactor" : 1,
                "roughnessFactor" : 0.7171573042869568
            }
        },
        {
            "doubleSided" : true,
            "name" : "Props.001",
            "pbrMetallicRoughness" : {
                "baseColorFactor" : [
                    0.011764707043766975,
                    0.011764707043766975,
                    0.011764707043766975,
                    1
                ],
                "metallicFactor" : 1,
                "roughnessFactor" : 0.7171573042869568
            }
        }
    ],
    "meshes" : [
        {
            "name" : "Mesh.001",
            "primitives" : [
                {
                    "attributes" : {
                        "POSITION" : 0,
                        "NORMAL" : 1,
                        "TEXCOORD_0" : 2
                    },
                    "indices" : 3,
                    "material" : 0
                },
                {
                    "attributes" : {
                        "POSITION" : 4,
                        "NORMAL" : 5,
                        "TEXCOORD_0" : 6
                    },
                    "indices" : 7,
                    "material" : 1
                }
            ]
        }
    ],
    "textures" : [
        {
            "source" : 0
        }
    ],
    "images" : [
        {
            "bufferView" : 4,
            "mimeType" : "image/png",
            "name" : "T_4_DeadlyFlyingTurtle_Low"
        }
    ],
    "accessors" : [
        {
            "bufferView" : 0,
            "componentType" : 5126,
            "count" : 2956,
            "max" : [
                25.920394897460938,
                5.421211242675781,
                102.1003189086914
            ],
            "min" : [
                -25.920392990112305,
                -3.7752881050109863,
                -79.11554718017578
            ],
            "type" : "VEC3"
        },
        {
            "bufferView" : 1,
            "componentType" : 5126,
            "count" : 2956,
            "type" : "VEC3"
        },
        {
            "bufferView" : 2,
            "componentType" : 5126,
            "count" : 2956,
            "type" : "VEC2"
        },
        {
            "bufferView" : 3,
            "componentType" : 5123,
            "count" : 16998,
            "type" : "SCALAR"
        },
        {
            "bufferView" : 5,
            "componentType" : 5126,
            "count" : 3298,
            "max" : [
                17.767379760742188,
                2.2258033752441406,
                94.28437042236328
            ],
            "min" : [
                -17.767385482788086,
                -2.835841655731201,
                56.9332275390625
            ],
            "type" : "VEC3"
        },
        {
            "bufferView" : 6,
            "componentType" : 5126,
            "count" : 3298,
            "type" : "VEC3"
        },
        {
            "bufferView" : 7,
            "componentType" : 5126,
            "count" : 3298,
            "type" : "VEC2"
        },
        {
            "bufferView" : 8,
            "componentType" : 5123,
            "count" : 8676,
            "type" : "SCALAR"
        }
    ],
    "bufferViews" : [
        {
            "buffer" : 0,
            "byteLength" : 35472,
            "byteOffset" : 0
        },
        {
            "buffer" : 0,
            "byteLength" : 35472,
            "byteOffset" : 35472
        },
        {
            "buffer" : 0,
            "byteLength" : 23648,
            "byteOffset" : 70944
        },
        {
            "buffer" : 0,
            "byteLength" : 33996,
            "byteOffset" : 94592
        },
        {
            "buffer" : 0,
            "byteLength" : 114519,
            "byteOffset" : 128588
        },
        {
            "buffer" : 0,
            "byteLength" : 39576,
            "byteOffset" : 243108
        },
        {
            "buffer" : 0,
            "byteLength" : 39576,
            "byteOffset" : 282684
        },
        {
            "buffer" : 0,
            "byteLength" : 26384,
            "byteOffset" : 322260
        },
        {
            "buffer" : 0,
            "byteLength" : 17352,
            "byteOffset" : 348644
        }
    ],
    "buffers" : [
        {
            "byteLength" : 365996,
            "uri" : "data:application/octet-stream;base64,"
        }
    ]
}
