{
    "asset" : {
        "generator" : "Khronos glTF Blender I/O v0.9.36",
        "version" : "2.0"
    },
    "scene" : 0,
    "scenes" : [
        {
            "name" : "Scene",
            "nodes" : [
                0,
                1,
                2
            ]
        }
    ],
    "nodes" : [
        {
            "name" : "Light",
            "rotation" : [
                0.16907575726509094,
                0.7558803558349609,
                -0.27217137813568115,
                0.570947527885437
            ],
            "translation" : [
                4.076245307922363,
                5.903861999511719,
                -1.0054539442062378
            ]
        },
        {
            "name" : "Camera",
            "rotation" : [
                0.483536034822464,
                0.33687159419059753,
                -0.20870360732078552,
                0.7804827094078064
            ],
            "translation" : [
                7.358891487121582,
                4.958309173583984,
                6.925790786743164
            ]
        },
        {
            "mesh" : 0,
            "name" : "SM_DeadlyFlyingTurtle",
            "rotation" : [
                0.7071068286895752,
                0,
                0,
                0.7071067094802856
            ],
            "scale" : [
                0.009999999776482582,
                0.009999999776482582,
                0.009999999776482582
            ],
            "translation" : [
                0,
                1.0209944248199463,
                0.016773942857980728
            ]
        }
    ],
    "materials" : [
        {
            "doubleSided" : true,
            "name" : "Body.012",
            "pbrMetallicRoughness" : {
                "baseColorFactor" : [
                    0.7960785031318665,
                    0.7960785031318665,
                    0.7960785031318665,
                    1
                ],
                "metallicFactor" : 1,
                "roughnessFactor" : 0.7171573042869568
            }
        },
        {
            "doubleSided" : true,
            "name" : "Props.012",
            "pbrMetallicRoughness" : {
                "baseColorFactor" : [
                    0.011764707043766975,
                    0.011764707043766975,
                    0.011764707043766975,
                    1
                ],
                "metallicFactor" : 1,
                "roughnessFactor" : 0.7171573042869568
            }
        }
    ],
    "meshes" : [
        {
            "name" : "Mesh.012",
            "primitives" : [
                {
                    "attributes" : {
                        "POSITION" : 0,
                        "NORMAL" : 1,
                        "TEXCOORD_0" : 2
                    },
                    "indices" : 3,
                    "material" : 0
                },
                {
                    "attributes" : {
                        "POSITION" : 4,
                        "NORMAL" : 5,
                        "TEXCOORD_0" : 6
                    },
                    "indices" : 7,
                    "material" : 1
                }
            ]
        }
    ],
    "accessors" : [
        {
            "bufferView" : 0,
            "componentType" : 5126,
            "count" : 2956,
            "max" : [
                25.920394897460938,
                5.421211242675781,
                102.1003189086914
            ],
            "min" : [
                -25.920392990112305,
                -3.7752881050109863,
                -79.11554718017578
            ],
            "type" : "VEC3"
        },
        {
            "bufferView" : 1,
            "componentType" : 5126,
            "count" : 2956,
            "type" : "VEC3"
        },
        {
            "bufferView" : 2,
            "componentType" : 5126,
            "count" : 2956,
            "type" : "VEC2"
        },
        {
            "bufferView" : 3,
            "componentType" : 5123,
            "count" : 16998,
            "type" : "SCALAR"
        },
        {
            "bufferView" : 4,
            "componentType" : 5126,
            "count" : 3298,
            "max" : [
                17.767379760742188,
                2.2258033752441406,
                94.28437042236328
            ],
            "min" : [
                -17.767385482788086,
                -2.835841655731201,
                56.9332275390625
            ],
            "type" : "VEC3"
        },
        {
            "bufferView" : 5,
            "componentType" : 5126,
            "count" : 3298,
            "type" : "VEC3"
        },
        {
            "bufferView" : 6,
            "componentType" : 5126,
            "count" : 3298,
            "type" : "VEC2"
        },
        {
            "bufferView" : 7,
            "componentType" : 5123,
            "count" : 8676,
            "type" : "SCALAR"
        }
    ],
    "bufferViews" : [
        {
            "buffer" : 0,
            "byteLength" : 35472,
            "byteOffset" : 0
        },
        {
            "buffer" : 0,
            "byteLength" : 35472,
            "byteOffset" : 35472
        },
        {
            "buffer" : 0,
            "byteLength" : 23648,
            "byteOffset" : 70944
        },
        {
            "buffer" : 0,
            "byteLength" : 33996,
            "byteOffset" : 94592
        },
        {
            "buffer" : 0,
            "byteLength" : 39576,
            "byteOffset" : 128588
        },
        {
            "buffer" : 0,
            "byteLength" : 39576,
            "byteOffset" : 168164
        },
        {
            "buffer" : 0,
            "byteLength" : 26384,
            "byteOffset" : 207740
        },
        {
            "buffer" : 0,
            "byteLength" : 17352,
            "byteOffset" : 234124
        }
    ],
    "buffers" : [
        {
            "byteLength" : 251476,
            "uri" : "data:application/octet-stream;base64,"
        }
    ]
}
