{
    "asset" : {
        "generator" : "Khronos glTF Blender I/O v0.9.36",
        "version" : "2.0"
    },
    "scene" : 0,
    "scenes" : [
        {
            "name" : "Scene",
            "nodes" : [
                0
            ]
        }
    ],
    "nodes" : [
        {
            "mesh" : 0,
            "name" : "SM_F-Money",
            "rotation" : [
                0.7071068286895752,
                0,
                0,
                0.7071067094802856
            ],
            "scale" : [
                0.009610000066459179,
                0.009610000066459179,
                0.009610000066459179
            ],
            "translation" : [
                0,
                0.9700086116790771,
                -0.03716733306646347
            ]
        }
    ],
    "materials" : [
        {
            "doubleSided" : true,
            "name" : "Body",
            "pbrMetallicRoughness" : {
                "baseColorTexture" : {
                    "index" : 0,
                    "texCoord" : 0
                },
                "metallicFactor" : 1,
                "roughnessFactor" : 0.7171573042869568
            }
        }
    ],
    "meshes" : [
        {
            "name" : "Mesh",
            "primitives" : [
                {
                    "attributes" : {
                        "POSITION" : 0,
                        "NORMAL" : 1,
                        "TEXCOORD_0" : 2
                    },
                    "indices" : 3,
                    "material" : 0
                }
            ]
        }
    ],
    "textures" : [
        {
            "source" : 0
        }
    ],
    "images" : [
        {
            "bufferView" : 4,
            "mimeType" : "image/png",
            "name" : "T_F-Money_Low"
        }
    ],
    "accessors" : [
        {
            "bufferView" : 0,
            "componentType" : 5126,
            "count" : 5091,
            "max" : [
                24.681026458740234,
                10.179137229919434,
                100.9397964477539
            ],
            "min" : [
                -24.68102264404297,
                -3.041266441345215,
                -92.88533020019531
            ],
            "type" : "VEC3"
        },
        {
            "bufferView" : 1,
            "componentType" : 5126,
            "count" : 5091,
            "type" : "VEC3"
        },
        {
            "bufferView" : 2,
            "componentType" : 5126,
            "count" : 5091,
            "type" : "VEC2"
        },
        {
            "bufferView" : 3,
            "componentType" : 5123,
            "count" : 22734,
            "type" : "SCALAR"
        }
    ],
    "bufferViews" : [
        {
            "buffer" : 0,
            "byteLength" : 61092,
            "byteOffset" : 0
        },
        {
            "buffer" : 0,
            "byteLength" : 61092,
            "byteOffset" : 61092
        },
        {
            "buffer" : 0,
            "byteLength" : 40728,
            "byteOffset" : 122184
        },
        {
            "buffer" : 0,
            "byteLength" : 45468,
            "byteOffset" : 162912
        },
        {
            "buffer" : 0,
            "byteLength" : 108168,
            "byteOffset" : 208380
        }
    ],
    "buffers" : [
        {
            "byteLength" : 316548,
            "uri" : "data:application/octet-stream;base64,"
        }
    ]
}
