{
    "asset" : {
        "generator" : "Khronos glTF Blender I/O v0.9.36",
        "version" : "2.0"
    },
    "scene" : 0,
    "scenes" : [
        {
            "name" : "Scene",
            "nodes" : [
                0
            ]
        }
    ],
    "nodes" : [
        {
            "mesh" : 0,
            "name" : "SM_G-MoneyIIGun",
            "rotation" : [
                0.7071068286895752,
                0,
                0,
                0.7071067094802856
            ],
            "scale" : [
                0.011772668920457363,
                0.011772668920457363,
                0.011772668920457363
            ],
            "translation" : [
                0,
                1.2014824151992798,
                -0.04553160443902016
            ]
        }
    ],
    "materials" : [
        {
            "doubleSided" : true,
            "name" : "Body.005",
            "pbrMetallicRoughness" : {
                "baseColorTexture" : {
                    "index" : 0,
                    "texCoord" : 0
                },
                "metallicFactor" : 1,
                "roughnessFactor" : 0.7171573042869568
            }
        }
    ],
    "meshes" : [
        {
            "name" : "Mesh.005",
            "primitives" : [
                {
                    "attributes" : {
                        "POSITION" : 0,
                        "NORMAL" : 1,
                        "TEXCOORD_0" : 2
                    },
                    "indices" : 3,
                    "material" : 0
                }
            ]
        }
    ],
    "textures" : [
        {
            "source" : 0
        }
    ],
    "images" : [
        {
            "bufferView" : 4,
            "mimeType" : "image/png",
            "name" : "T_GMoneyIIGun_Low"
        }
    ],
    "accessors" : [
        {
            "bufferView" : 0,
            "componentType" : 5126,
            "count" : 6950,
            "max" : [
                20.998552322387695,
                9.004463195800781,
                102.06004333496094
            ],
            "min" : [
                -20.998550415039062,
                -3.2034449577331543,
                -93.15267944335938
            ],
            "type" : "VEC3"
        },
        {
            "bufferView" : 1,
            "componentType" : 5126,
            "count" : 6950,
            "type" : "VEC3"
        },
        {
            "bufferView" : 2,
            "componentType" : 5126,
            "count" : 6950,
            "type" : "VEC2"
        },
        {
            "bufferView" : 3,
            "componentType" : 5123,
            "count" : 30090,
            "type" : "SCALAR"
        }
    ],
    "bufferViews" : [
        {
            "buffer" : 0,
            "byteLength" : 83400,
            "byteOffset" : 0
        },
        {
            "buffer" : 0,
            "byteLength" : 83400,
            "byteOffset" : 83400
        },
        {
            "buffer" : 0,
            "byteLength" : 55600,
            "byteOffset" : 166800
        },
        {
            "buffer" : 0,
            "byteLength" : 60180,
            "byteOffset" : 222400
        },
        {
            "buffer" : 0,
            "byteLength" : 23952,
            "byteOffset" : 282580
        }
    ],
    "buffers" : [
        {
            "byteLength" : 306532,
            "uri" : "data:application/octet-stream;base64,"
        }
    ]
}
