{
    "asset" : {
        "generator" : "Khronos glTF Blender I/O v0.9.36",
        "version" : "2.0"
    },
    "scene" : 0,
    "scenes" : [
        {
            "name" : "Scene",
            "nodes" : [
                0
            ]
        }
    ],
    "nodes" : [
        {
            "mesh" : 0,
            "name" : "SM_G-MoneyII",
            "rotation" : [
                0.7071068286895752,
                0,
                0,
                0.7071067094802856
            ],
            "scale" : [
                0.010008510202169418,
                0.010008510202169418,
                0.010008510202169418
            ],
            "translation" : [
                0,
                1.0616211891174316,
                -0.03870860114693642
            ]
        }
    ],
    "materials" : [
        {
            "doubleSided" : true,
            "name" : "Body",
            "pbrMetallicRoughness" : {
                "baseColorTexture" : {
                    "index" : 0,
                    "texCoord" : 0
                },
                "metallicFactor" : 1,
                "roughnessFactor" : 0.7171573042869568
            }
        }
    ],
    "meshes" : [
        {
            "name" : "Mesh",
            "primitives" : [
                {
                    "attributes" : {
                        "POSITION" : 0,
                        "NORMAL" : 1,
                        "TEXCOORD_0" : 2
                    },
                    "indices" : 3,
                    "material" : 0
                }
            ]
        }
    ],
    "textures" : [
        {
            "source" : 0
        }
    ],
    "images" : [
        {
            "bufferView" : 4,
            "mimeType" : "image/png",
            "name" : "T_G-MoneyIl_Low"
        }
    ],
    "accessors" : [
        {
            "bufferView" : 0,
            "componentType" : 5126,
            "count" : 5853,
            "max" : [
                24.189067840576172,
                8.747903823852539,
                106.07211303710938
            ],
            "min" : [
                -24.189064025878906,
                -3.206644058227539,
                -93.0130615234375
            ],
            "type" : "VEC3"
        },
        {
            "bufferView" : 1,
            "componentType" : 5126,
            "count" : 5853,
            "type" : "VEC3"
        },
        {
            "bufferView" : 2,
            "componentType" : 5126,
            "count" : 5853,
            "type" : "VEC2"
        },
        {
            "bufferView" : 3,
            "componentType" : 5123,
            "count" : 27552,
            "type" : "SCALAR"
        }
    ],
    "bufferViews" : [
        {
            "buffer" : 0,
            "byteLength" : 70236,
            "byteOffset" : 0
        },
        {
            "buffer" : 0,
            "byteLength" : 70236,
            "byteOffset" : 70236
        },
        {
            "buffer" : 0,
            "byteLength" : 46824,
            "byteOffset" : 140472
        },
        {
            "buffer" : 0,
            "byteLength" : 55104,
            "byteOffset" : 187296
        },
        {
            "buffer" : 0,
            "byteLength" : 120782,
            "byteOffset" : 242400
        }
    ],
    "buffers" : [
        {
            "byteLength" : 363184,
            "uri" : "data:application/octet-stream;base64,"
        }
    ]
}
