{
    "asset" : {
        "generator" : "Khronos glTF Blender I/O v0.9.36",
        "version" : "2.0"
    },
    "scene" : 0,
    "scenes" : [
        {
            "name" : "Scene",
            "nodes" : [
                0
            ]
        }
    ],
    "nodes" : [
        {
            "mesh" : 0,
            "name" : "SM_HipJell",
            "rotation" : [
                -1,
                0,
                0,
                1.9470718370939721e-07
            ],
            "scale" : [
                0.00010440000187372789,
                0.00010440000187372789,
                0.00010440000187372789
            ]
        }
    ],
    "materials" : [
        {
            "doubleSided" : true,
            "name" : "Body.004",
            "pbrMetallicRoughness" : {
                "baseColorTexture" : {
                    "index" : 0,
                    "texCoord" : 0
                },
                "metallicFactor" : 1,
                "roughnessFactor" : 0.7171573042869568
            }
        }
    ],
    "meshes" : [
        {
            "name" : "Mesh.004",
            "primitives" : [
                {
                    "attributes" : {
                        "POSITION" : 0,
                        "NORMAL" : 1,
                        "TEXCOORD_0" : 2
                    },
                    "indices" : 3,
                    "material" : 0
                }
            ]
        }
    ],
    "textures" : [
        {
            "source" : 0
        }
    ],
    "images" : [
        {
            "bufferView" : 4,
            "mimeType" : "image/jpeg",
            "name" : "T_HipJell_Low"
        }
    ],
    "accessors" : [
        {
            "bufferView" : 0,
            "componentType" : 5126,
            "count" : 5161,
            "max" : [
                2437.9921875,
                0.458526611328125,
                742.0858154296875
            ],
            "min" : [
                -2437.9921875,
                -20073.51953125,
                -518.8230590820312
            ],
            "type" : "VEC3"
        },
        {
            "bufferView" : 1,
            "componentType" : 5126,
            "count" : 5161,
            "type" : "VEC3"
        },
        {
            "bufferView" : 2,
            "componentType" : 5126,
            "count" : 5161,
            "type" : "VEC2"
        },
        {
            "bufferView" : 3,
            "componentType" : 5123,
            "count" : 26028,
            "type" : "SCALAR"
        }
    ],
    "bufferViews" : [
        {
            "buffer" : 0,
            "byteLength" : 61932,
            "byteOffset" : 0
        },
        {
            "buffer" : 0,
            "byteLength" : 61932,
            "byteOffset" : 61932
        },
        {
            "buffer" : 0,
            "byteLength" : 41288,
            "byteOffset" : 123864
        },
        {
            "buffer" : 0,
            "byteLength" : 52056,
            "byteOffset" : 165152
        },
        {
            "buffer" : 0,
            "byteLength" : 57753,
            "byteOffset" : 217208
        }
    ],
    "buffers" : [
        {
            "byteLength" : 274964,
            "uri" : "data:application/octet-stream;base64,"
        }
    ]
}
