{
    "asset" : {
        "generator" : "Khronos glTF Blender I/O v0.9.36",
        "version" : "2.0"
    },
    "scene" : 0,
    "scenes" : [
        {
            "name" : "Scene",
            "nodes" : [
                0
            ]
        }
    ],
    "nodes" : [
        {
            "mesh" : 0,
            "name" : "SM_HipJell",
            "rotation" : [
                0.7071068286895752,
                0,
                0,
                0.7071067094802856
            ],
            "scale" : [
                0.010440000332891941,
                0.010440000332891941,
                0.010440000332891941
            ],
            "translation" : [
                0,
                1.179636001586914,
                -0.009808462113142014
            ]
        }
    ],
    "materials" : [
        {
            "doubleSided" : true,
            "name" : "Body.001",
            "pbrMetallicRoughness" : {
                "baseColorTexture" : {
                    "index" : 0,
                    "texCoord" : 0
                },
                "metallicFactor" : 1,
                "roughnessFactor" : 0.7171573042869568
            }
        }
    ],
    "meshes" : [
        {
            "name" : "Mesh.001",
            "primitives" : [
                {
                    "attributes" : {
                        "POSITION" : 0,
                        "NORMAL" : 1,
                        "TEXCOORD_0" : 2
                    },
                    "indices" : 3,
                    "material" : 0
                }
            ]
        }
    ],
    "textures" : [
        {
            "source" : 0
        }
    ],
    "images" : [
        {
            "bufferView" : 4,
            "mimeType" : "image/png",
            "name" : "T_HipJell_Low"
        }
    ],
    "accessors" : [
        {
            "bufferView" : 0,
            "componentType" : 5126,
            "count" : 5788,
            "max" : [
                24.379920959472656,
                6.127756595611572,
                112.99653625488281
            ],
            "min" : [
                -24.379920959472656,
                -4.452034950256348,
                -87.74325561523438
            ],
            "type" : "VEC3"
        },
        {
            "bufferView" : 1,
            "componentType" : 5126,
            "count" : 5788,
            "type" : "VEC3"
        },
        {
            "bufferView" : 2,
            "componentType" : 5126,
            "count" : 5788,
            "type" : "VEC2"
        },
        {
            "bufferView" : 3,
            "componentType" : 5123,
            "count" : 27492,
            "type" : "SCALAR"
        }
    ],
    "bufferViews" : [
        {
            "buffer" : 0,
            "byteLength" : 69456,
            "byteOffset" : 0
        },
        {
            "buffer" : 0,
            "byteLength" : 69456,
            "byteOffset" : 69456
        },
        {
            "buffer" : 0,
            "byteLength" : 46304,
            "byteOffset" : 138912
        },
        {
            "buffer" : 0,
            "byteLength" : 54984,
            "byteOffset" : 185216
        },
        {
            "buffer" : 0,
            "byteLength" : 231878,
            "byteOffset" : 240200
        }
    ],
    "buffers" : [
        {
            "byteLength" : 472080,
            "uri" : "data:application/octet-stream;base64,"
        }
    ]
}
