{
    "asset" : {
        "generator" : "Khronos glTF Blender I/O v0.9.36",
        "version" : "2.0"
    },
    "scene" : 0,
    "scenes" : [
        {
            "name" : "Scene",
            "nodes" : [
                0
            ]
        }
    ],
    "nodes" : [
        {
            "mesh" : 0,
            "name" : "geo_5_NewBuddy_000",
            "rotation" : [
                0.7071068286895752,
                0,
                0,
                0.7071067094802856
            ],
            "scale" : [
                0.009609999135136604,
                0.009609999135136604,
                0.009609999135136604
            ],
            "translation" : [
                0,
                0.9839110374450684,
                -0.03716733306646347
            ]
        }
    ],
    "materials" : [
        {
            "doubleSided" : true,
            "name" : "Body.002",
            "pbrMetallicRoughness" : {
                "baseColorTexture" : {
                    "index" : 0,
                    "texCoord" : 0
                },
                "metallicFactor" : 1,
                "roughnessFactor" : 0.7171573042869568
            }
        },
        {
            "doubleSided" : true,
            "name" : "Props.002",
            "pbrMetallicRoughness" : {
                "baseColorFactor" : [
                    0.011764707043766975,
                    0.011764707043766975,
                    0.011764707043766975,
                    1
                ],
                "metallicFactor" : 1,
                "roughnessFactor" : 0.696856677532196
            }
        }
    ],
    "meshes" : [
        {
            "name" : "Mesh.002",
            "primitives" : [
                {
                    "attributes" : {
                        "POSITION" : 0,
                        "NORMAL" : 1,
                        "TEXCOORD_0" : 2
                    },
                    "indices" : 3,
                    "material" : 0
                },
                {
                    "attributes" : {
                        "POSITION" : 4,
                        "NORMAL" : 5,
                        "TEXCOORD_0" : 6
                    },
                    "indices" : 7,
                    "material" : 1
                }
            ]
        }
    ],
    "textures" : [
        {
            "source" : 0
        }
    ],
    "images" : [
        {
            "bufferView" : 4,
            "mimeType" : "image/png",
            "name" : "T_NewBuddy_Low"
        }
    ],
    "accessors" : [
        {
            "bufferView" : 0,
            "componentType" : 5126,
            "count" : 3158,
            "max" : [
                24.591732025146484,
                8.747014045715332,
                102.38443756103516
            ],
            "min" : [
                -24.59172821044922,
                -3.256929874420166,
                -93.50418853759766
            ],
            "type" : "VEC3"
        },
        {
            "bufferView" : 1,
            "componentType" : 5126,
            "count" : 3158,
            "type" : "VEC3"
        },
        {
            "bufferView" : 2,
            "componentType" : 5126,
            "count" : 3158,
            "type" : "VEC2"
        },
        {
            "bufferView" : 3,
            "componentType" : 5123,
            "count" : 17946,
            "type" : "SCALAR"
        },
        {
            "bufferView" : 5,
            "componentType" : 5126,
            "count" : 1887,
            "max" : [
                14.979021072387695,
                4.66680908203125,
                91.45552825927734
            ],
            "min" : [
                -14.979021072387695,
                -1.6156773567199707,
                51.94392395019531
            ],
            "type" : "VEC3"
        },
        {
            "bufferView" : 6,
            "componentType" : 5126,
            "count" : 1887,
            "type" : "VEC3"
        },
        {
            "bufferView" : 7,
            "componentType" : 5126,
            "count" : 1887,
            "type" : "VEC2"
        },
        {
            "bufferView" : 8,
            "componentType" : 5123,
            "count" : 7230,
            "type" : "SCALAR"
        }
    ],
    "bufferViews" : [
        {
            "buffer" : 0,
            "byteLength" : 37896,
            "byteOffset" : 0
        },
        {
            "buffer" : 0,
            "byteLength" : 37896,
            "byteOffset" : 37896
        },
        {
            "buffer" : 0,
            "byteLength" : 25264,
            "byteOffset" : 75792
        },
        {
            "buffer" : 0,
            "byteLength" : 35892,
            "byteOffset" : 101056
        },
        {
            "buffer" : 0,
            "byteLength" : 14568,
            "byteOffset" : 136948
        },
        {
            "buffer" : 0,
            "byteLength" : 22644,
            "byteOffset" : 151516
        },
        {
            "buffer" : 0,
            "byteLength" : 22644,
            "byteOffset" : 174160
        },
        {
            "buffer" : 0,
            "byteLength" : 15096,
            "byteOffset" : 196804
        },
        {
            "buffer" : 0,
            "byteLength" : 14460,
            "byteOffset" : 211900
        }
    ],
    "buffers" : [
        {
            "byteLength" : 226360,
            "uri" : "data:application/octet-stream;base64,"
        }
    ]
}
