{
    "asset" : {
        "generator" : "Khronos glTF Blender I/O v0.9.36",
        "version" : "2.0"
    },
    "scene" : 0,
    "scenes" : [
        {
            "name" : "Scene",
            "nodes" : [
                0
            ]
        }
    ],
    "nodes" : [
        {
            "mesh" : 0,
            "name" : "5_Geo_NewToy_000",
            "scale" : [
                0.009999999776482582,
                0.009999999776482582,
                0.009999999776482582
            ],
            "translation" : [
                0,
                0.1072339117527008,
                0
            ]
        }
    ],
    "materials" : [
        {
            "doubleSided" : true,
            "name" : "Body.002",
            "pbrMetallicRoughness" : {
                "baseColorTexture" : {
                    "index" : 0,
                    "texCoord" : 0
                },
                "metallicFactor" : 1,
                "roughnessFactor" : 0.7171573042869568
            }
        },
        {
            "doubleSided" : true,
            "name" : "Props.002",
            "pbrMetallicRoughness" : {
                "baseColorFactor" : [
                    0.011764707043766975,
                    0.011764707043766975,
                    0.011764707043766975,
                    1
                ],
                "metallicFactor" : 1,
                "roughnessFactor" : 0.696856677532196
            }
        }
    ],
    "meshes" : [
        {
            "name" : "Mesh.002",
            "primitives" : [
                {
                    "attributes" : {
                        "POSITION" : 0,
                        "NORMAL" : 1,
                        "TEXCOORD_0" : 2
                    },
                    "indices" : 3,
                    "material" : 0
                },
                {
                    "attributes" : {
                        "POSITION" : 4,
                        "NORMAL" : 5,
                        "TEXCOORD_0" : 6
                    },
                    "indices" : 7,
                    "material" : 1
                }
            ]
        }
    ],
    "textures" : [
        {
            "source" : 0
        }
    ],
    "images" : [
        {
            "bufferView" : 4,
            "mimeType" : "image/png",
            "name" : "T_NewToy_Low"
        }
    ],
    "accessors" : [
        {
            "bufferView" : 0,
            "componentType" : 5126,
            "count" : 3694,
            "max" : [
                26.19745635986328,
                180.27703857421875,
                4.818413734436035
            ],
            "min" : [
                -26.19745635986328,
                -10.723465919494629,
                -6.846637725830078
            ],
            "type" : "VEC3"
        },
        {
            "bufferView" : 1,
            "componentType" : 5126,
            "count" : 3694,
            "type" : "VEC3"
        },
        {
            "bufferView" : 2,
            "componentType" : 5126,
            "count" : 3694,
            "type" : "VEC2"
        },
        {
            "bufferView" : 3,
            "componentType" : 5123,
            "count" : 21018,
            "type" : "SCALAR"
        },
        {
            "bufferView" : 5,
            "componentType" : 5126,
            "count" : 2358,
            "max" : [
                17.895530700683594,
                40.429443359375,
                0.7977534532546997
            ],
            "min" : [
                -17.895530700683594,
                4.217384338378906,
                -5.233453273773193
            ],
            "type" : "VEC3"
        },
        {
            "bufferView" : 6,
            "componentType" : 5126,
            "count" : 2358,
            "type" : "VEC3"
        },
        {
            "bufferView" : 7,
            "componentType" : 5126,
            "count" : 2358,
            "type" : "VEC2"
        },
        {
            "bufferView" : 8,
            "componentType" : 5123,
            "count" : 8802,
            "type" : "SCALAR"
        }
    ],
    "bufferViews" : [
        {
            "buffer" : 0,
            "byteLength" : 44328,
            "byteOffset" : 0
        },
        {
            "buffer" : 0,
            "byteLength" : 44328,
            "byteOffset" : 44328
        },
        {
            "buffer" : 0,
            "byteLength" : 29552,
            "byteOffset" : 88656
        },
        {
            "buffer" : 0,
            "byteLength" : 42036,
            "byteOffset" : 118208
        },
        {
            "buffer" : 0,
            "byteLength" : 62794,
            "byteOffset" : 160244
        },
        {
            "buffer" : 0,
            "byteLength" : 28296,
            "byteOffset" : 223040
        },
        {
            "buffer" : 0,
            "byteLength" : 28296,
            "byteOffset" : 251336
        },
        {
            "buffer" : 0,
            "byteLength" : 18864,
            "byteOffset" : 279632
        },
        {
            "buffer" : 0,
            "byteLength" : 17604,
            "byteOffset" : 298496
        }
    ],
    "buffers" : [
        {
            "byteLength" : 316100,
            "uri" : "data:application/octet-stream;base64,"
        }
    ]
}
