{
    "asset" : {
        "generator" : "Khronos glTF Blender I/O v0.9.36",
        "version" : "2.0"
    },
    "scene" : 0,
    "scenes" : [
        {
            "name" : "Scene",
            "nodes" : [
                0
            ]
        }
    ],
    "nodes" : [
        {
            "mesh" : 0,
            "name" : "geo_5_proiixv_000",
            "rotation" : [
                0.7071068286895752,
                0,
                0,
                0.7071067094802856
            ],
            "scale" : [
                0.009609999135136604,
                0.009609999135136604,
                0.009609999135136604
            ],
            "translation" : [
                0,
                1.0800666809082031,
                -0.03716733679175377
            ]
        }
    ],
    "materials" : [
        {
            "doubleSided" : true,
            "name" : "Body.004",
            "pbrMetallicRoughness" : {
                "baseColorTexture" : {
                    "index" : 0,
                    "texCoord" : 0
                },
                "metallicFactor" : 1,
                "roughnessFactor" : 0.7171573042869568
            }
        },
        {
            "doubleSided" : true,
            "name" : "Props.004",
            "pbrMetallicRoughness" : {
                "baseColorFactor" : [
                    0.011764707043766975,
                    0.011764707043766975,
                    0.011764707043766975,
                    1
                ],
                "metallicFactor" : 1,
                "roughnessFactor" : 0.696856677532196
            }
        }
    ],
    "meshes" : [
        {
            "name" : "Mesh.004",
            "primitives" : [
                {
                    "attributes" : {
                        "POSITION" : 0,
                        "NORMAL" : 1,
                        "TEXCOORD_0" : 2
                    },
                    "indices" : 3,
                    "material" : 0
                },
                {
                    "attributes" : {
                        "POSITION" : 4,
                        "NORMAL" : 5,
                        "TEXCOORD_0" : 6
                    },
                    "indices" : 7,
                    "material" : 1
                }
            ]
        }
    ],
    "textures" : [
        {
            "source" : 0
        }
    ],
    "images" : [
        {
            "bufferView" : 4,
            "mimeType" : "image/png",
            "name" : "T_PROIIXV_Low"
        }
    ],
    "accessors" : [
        {
            "bufferView" : 0,
            "componentType" : 5126,
            "count" : 3026,
            "max" : [
                26.827966690063477,
                9.01149845123291,
                112.39469146728516
            ],
            "min" : [
                -26.827970504760742,
                -3.256930351257324,
                -93.0748519897461
            ],
            "type" : "VEC3"
        },
        {
            "bufferView" : 1,
            "componentType" : 5126,
            "count" : 3026,
            "type" : "VEC3"
        },
        {
            "bufferView" : 2,
            "componentType" : 5126,
            "count" : 3026,
            "type" : "VEC2"
        },
        {
            "bufferView" : 3,
            "componentType" : 5123,
            "count" : 17190,
            "type" : "SCALAR"
        },
        {
            "bufferView" : 5,
            "componentType" : 5126,
            "count" : 2829,
            "max" : [
                17.038084030151367,
                4.697707653045654,
                92.59835052490234
            ],
            "min" : [
                -17.038084030151367,
                -1.6156786680221558,
                51.94391632080078
            ],
            "type" : "VEC3"
        },
        {
            "bufferView" : 6,
            "componentType" : 5126,
            "count" : 2829,
            "type" : "VEC3"
        },
        {
            "bufferView" : 7,
            "componentType" : 5126,
            "count" : 2829,
            "type" : "VEC2"
        },
        {
            "bufferView" : 8,
            "componentType" : 5123,
            "count" : 10374,
            "type" : "SCALAR"
        }
    ],
    "bufferViews" : [
        {
            "buffer" : 0,
            "byteLength" : 36312,
            "byteOffset" : 0
        },
        {
            "buffer" : 0,
            "byteLength" : 36312,
            "byteOffset" : 36312
        },
        {
            "buffer" : 0,
            "byteLength" : 24208,
            "byteOffset" : 72624
        },
        {
            "buffer" : 0,
            "byteLength" : 34380,
            "byteOffset" : 96832
        },
        {
            "buffer" : 0,
            "byteLength" : 26462,
            "byteOffset" : 131212
        },
        {
            "buffer" : 0,
            "byteLength" : 33948,
            "byteOffset" : 157676
        },
        {
            "buffer" : 0,
            "byteLength" : 33948,
            "byteOffset" : 191624
        },
        {
            "buffer" : 0,
            "byteLength" : 22632,
            "byteOffset" : 225572
        },
        {
            "buffer" : 0,
            "byteLength" : 20748,
            "byteOffset" : 248204
        }
    ],
    "buffers" : [
        {
            "byteLength" : 268952,
            "uri" : "data:application/octet-stream;base64,"
        }
    ]
}
