{
    "asset" : {
        "generator" : "Khronos glTF Blender I/O v0.9.36",
        "version" : "2.0"
    },
    "scene" : 0,
    "scenes" : [
        {
            "name" : "Scene",
            "nodes" : [
                0
            ]
        }
    ],
    "nodes" : [
        {
            "mesh" : 0,
            "name" : "geo_4_rxp_000",
            "rotation" : [
                0.7071068286895752,
                0,
                0,
                0.7071067094802856
            ],
            "scale" : [
                0.009999999776482582,
                0.009999999776482582,
                0.009999999776482582
            ],
            "translation" : [
                0,
                1.0942840576171875,
                -0.009395075030624866
            ]
        }
    ],
    "materials" : [
        {
            "doubleSided" : true,
            "name" : "Body.001",
            "pbrMetallicRoughness" : {
                "baseColorTexture" : {
                    "index" : 0,
                    "texCoord" : 0
                },
                "metallicFactor" : 1,
                "roughnessFactor" : 0.7171573042869568
            }
        },
        {
            "doubleSided" : true,
            "name" : "Props.001",
            "pbrMetallicRoughness" : {
                "baseColorFactor" : [
                    0.011764707043766975,
                    0.011764707043766975,
                    0.011764707043766975,
                    1
                ],
                "metallicFactor" : 1,
                "roughnessFactor" : 0.696856677532196
            }
        }
    ],
    "meshes" : [
        {
            "name" : "Mesh.001",
            "primitives" : [
                {
                    "attributes" : {
                        "POSITION" : 0,
                        "NORMAL" : 1,
                        "TEXCOORD_0" : 2
                    },
                    "indices" : 3,
                    "material" : 0
                },
                {
                    "attributes" : {
                        "POSITION" : 4,
                        "NORMAL" : 5,
                        "TEXCOORD_0" : 6
                    },
                    "indices" : 7,
                    "material" : 1
                }
            ]
        }
    ],
    "textures" : [
        {
            "source" : 0
        }
    ],
    "images" : [
        {
            "bufferView" : 4,
            "mimeType" : "image/png",
            "name" : "T_RXP_Low"
        }
    ],
    "accessors" : [
        {
            "bufferView" : 0,
            "componentType" : 5126,
            "count" : 3014,
            "max" : [
                23.089977264404297,
                5.430625915527344,
                109.42901611328125
            ],
            "min" : [
                -23.08997917175293,
                -3.8012657165527344,
                -78.83518981933594
            ],
            "type" : "VEC3"
        },
        {
            "bufferView" : 1,
            "componentType" : 5126,
            "count" : 3014,
            "type" : "VEC3"
        },
        {
            "bufferView" : 2,
            "componentType" : 5126,
            "count" : 3014,
            "type" : "VEC2"
        },
        {
            "bufferView" : 3,
            "componentType" : 5123,
            "count" : 16986,
            "type" : "SCALAR"
        },
        {
            "bufferView" : 5,
            "componentType" : 5126,
            "count" : 2277,
            "max" : [
                14.380748748779297,
                2.2220473289489746,
                93.52885437011719
            ],
            "min" : [
                -14.380748748779297,
                -2.637361526489258,
                59.108131408691406
            ],
            "type" : "VEC3"
        },
        {
            "bufferView" : 6,
            "componentType" : 5126,
            "count" : 2277,
            "type" : "VEC3"
        },
        {
            "bufferView" : 7,
            "componentType" : 5126,
            "count" : 2277,
            "type" : "VEC2"
        },
        {
            "bufferView" : 8,
            "componentType" : 5123,
            "count" : 7230,
            "type" : "SCALAR"
        }
    ],
    "bufferViews" : [
        {
            "buffer" : 0,
            "byteLength" : 36168,
            "byteOffset" : 0
        },
        {
            "buffer" : 0,
            "byteLength" : 36168,
            "byteOffset" : 36168
        },
        {
            "buffer" : 0,
            "byteLength" : 24112,
            "byteOffset" : 72336
        },
        {
            "buffer" : 0,
            "byteLength" : 33972,
            "byteOffset" : 96448
        },
        {
            "buffer" : 0,
            "byteLength" : 106791,
            "byteOffset" : 130420
        },
        {
            "buffer" : 0,
            "byteLength" : 27324,
            "byteOffset" : 237212
        },
        {
            "buffer" : 0,
            "byteLength" : 27324,
            "byteOffset" : 264536
        },
        {
            "buffer" : 0,
            "byteLength" : 18216,
            "byteOffset" : 291860
        },
        {
            "buffer" : 0,
            "byteLength" : 14460,
            "byteOffset" : 310076
        }
    ],
    "buffers" : [
        {
            "byteLength" : 324536,
            "uri" : "data:application/octet-stream;base64,"
        }
    ]
}
