{
    "asset" : {
        "generator" : "Khronos glTF Blender I/O v0.9.36",
        "version" : "2.0"
    },
    "scene" : 0,
    "scenes" : [
        {
            "name" : "Scene",
            "nodes" : [
                0,
                1,
                2
            ]
        }
    ],
    "nodes" : [
        {
            "name" : "Light",
            "rotation" : [
                0.16907575726509094,
                0.7558803558349609,
                -0.27217137813568115,
                0.570947527885437
            ],
            "translation" : [
                4.076245307922363,
                5.903861999511719,
                -1.0054539442062378
            ]
        },
        {
            "name" : "Camera",
            "rotation" : [
                0.483536034822464,
                0.33687159419059753,
                -0.20870360732078552,
                0.7804827094078064
            ],
            "translation" : [
                7.358891487121582,
                4.958309173583984,
                6.925790786743164
            ]
        },
        {
            "mesh" : 0,
            "name" : "geo_1_seahawk_000",
            "rotation" : [
                0.7071068286895752,
                0,
                0,
                0.7071067094802856
            ],
            "scale" : [
                0.009999999776482582,
                0.009999999776482582,
                0.009999999776482582
            ],
            "translation" : [
                0,
                0.9452275633811951,
                -0.031417179852724075
            ]
        }
    ],
    "materials" : [
        {
            "doubleSided" : true,
            "name" : "Body.014",
            "pbrMetallicRoughness" : {
                "baseColorFactor" : [
                    0.7960785031318665,
                    0.7960785031318665,
                    0.7960785031318665,
                    1
                ],
                "metallicFactor" : 1,
                "roughnessFactor" : 0.7171573042869568
            }
        },
        {
            "doubleSided" : true,
            "name" : "Props.014",
            "pbrMetallicRoughness" : {
                "baseColorFactor" : [
                    0.011764707043766975,
                    0.011764707043766975,
                    0.011764707043766975,
                    1
                ],
                "metallicFactor" : 1,
                "roughnessFactor" : 0.7171573042869568
            }
        }
    ],
    "meshes" : [
        {
            "name" : "Mesh.014",
            "primitives" : [
                {
                    "attributes" : {
                        "POSITION" : 0,
                        "NORMAL" : 1,
                        "TEXCOORD_0" : 2
                    },
                    "indices" : 3,
                    "material" : 0
                },
                {
                    "attributes" : {
                        "POSITION" : 4,
                        "NORMAL" : 5,
                        "TEXCOORD_0" : 6
                    },
                    "indices" : 7,
                    "material" : 1
                }
            ]
        }
    ],
    "accessors" : [
        {
            "bufferView" : 0,
            "componentType" : 5126,
            "count" : 3868,
            "max" : [
                24.60503578186035,
                8.708248138427734,
                94.52303314208984
            ],
            "min" : [
                -24.60503578186035,
                -3.1140661239624023,
                -87.72720336914062
            ],
            "type" : "VEC3"
        },
        {
            "bufferView" : 1,
            "componentType" : 5126,
            "count" : 3868,
            "type" : "VEC3"
        },
        {
            "bufferView" : 2,
            "componentType" : 5126,
            "count" : 3868,
            "type" : "VEC2"
        },
        {
            "bufferView" : 3,
            "componentType" : 5123,
            "count" : 22002,
            "type" : "SCALAR"
        },
        {
            "bufferView" : 4,
            "componentType" : 5126,
            "count" : 2124,
            "max" : [
                13.854959487915039,
                3.920161247253418,
                86.87635040283203
            ],
            "min" : [
                -13.854963302612305,
                -1.8586468696594238,
                52.462669372558594
            ],
            "type" : "VEC3"
        },
        {
            "bufferView" : 5,
            "componentType" : 5126,
            "count" : 2124,
            "type" : "VEC3"
        },
        {
            "bufferView" : 6,
            "componentType" : 5126,
            "count" : 2124,
            "type" : "VEC2"
        },
        {
            "bufferView" : 7,
            "componentType" : 5123,
            "count" : 5532,
            "type" : "SCALAR"
        }
    ],
    "bufferViews" : [
        {
            "buffer" : 0,
            "byteLength" : 46416,
            "byteOffset" : 0
        },
        {
            "buffer" : 0,
            "byteLength" : 46416,
            "byteOffset" : 46416
        },
        {
            "buffer" : 0,
            "byteLength" : 30944,
            "byteOffset" : 92832
        },
        {
            "buffer" : 0,
            "byteLength" : 44004,
            "byteOffset" : 123776
        },
        {
            "buffer" : 0,
            "byteLength" : 25488,
            "byteOffset" : 167780
        },
        {
            "buffer" : 0,
            "byteLength" : 25488,
            "byteOffset" : 193268
        },
        {
            "buffer" : 0,
            "byteLength" : 16992,
            "byteOffset" : 218756
        },
        {
            "buffer" : 0,
            "byteLength" : 11064,
            "byteOffset" : 235748
        }
    ],
    "buffers" : [
        {
            "byteLength" : 246812,
            "uri" : "data:application/octet-stream;base64,"
        }
    ]
}
