{
    "asset" : {
        "generator" : "Khronos glTF Blender I/O v0.9.36",
        "version" : "2.0"
    },
    "scene" : 0,
    "scenes" : [
        {
            "name" : "Scene",
            "nodes" : [
                0
            ]
        }
    ],
    "nodes" : [
        {
            "mesh" : 0,
            "name" : "Seahawk",
            "rotation" : [
                0.7071068286895752,
                0,
                0,
                0.7071067094802856
            ],
            "scale" : [
                0.009999999776482582,
                0.009999999776482582,
                0.009999999776482582
            ],
            "translation" : [
                0,
                0.06724605709314346,
                0
            ]
        }
    ],
    "materials" : [
        {
            "doubleSided" : true,
            "name" : "Body.003",
            "pbrMetallicRoughness" : {
                "baseColorTexture" : {
                    "index" : 0,
                    "texCoord" : 0
                },
                "metallicFactor" : 1,
                "roughnessFactor" : 0.7171573042869568
            }
        },
        {
            "doubleSided" : true,
            "name" : "Props.003",
            "pbrMetallicRoughness" : {
                "baseColorFactor" : [
                    0.011764707043766975,
                    0.011764707043766975,
                    0.011764707043766975,
                    1
                ],
                "metallicFactor" : 1,
                "roughnessFactor" : 0.696856677532196
            }
        }
    ],
    "meshes" : [
        {
            "name" : "Mesh.003",
            "primitives" : [
                {
                    "attributes" : {
                        "POSITION" : 0,
                        "NORMAL" : 1,
                        "TEXCOORD_0" : 2
                    },
                    "indices" : 3,
                    "material" : 0
                },
                {
                    "attributes" : {
                        "POSITION" : 4,
                        "NORMAL" : 5,
                        "TEXCOORD_0" : 6
                    },
                    "indices" : 7,
                    "material" : 1
                }
            ]
        }
    ],
    "textures" : [
        {
            "source" : 0
        }
    ],
    "images" : [
        {
            "bufferView" : 4,
            "mimeType" : "image/png",
            "name" : "T_Seahawk_Low"
        }
    ],
    "accessors" : [
        {
            "bufferView" : 0,
            "componentType" : 5126,
            "count" : 3867,
            "max" : [
                24.57082176208496,
                5.78650426864624,
                6.727114200592041
            ],
            "min" : [
                -24.57085418701172,
                -6.015382766723633,
                -175.72708129882812
            ],
            "type" : "VEC3"
        },
        {
            "bufferView" : 1,
            "componentType" : 5126,
            "count" : 3867,
            "type" : "VEC3"
        },
        {
            "bufferView" : 2,
            "componentType" : 5126,
            "count" : 3867,
            "type" : "VEC2"
        },
        {
            "bufferView" : 3,
            "componentType" : 5123,
            "count" : 21960,
            "type" : "SCALAR"
        },
        {
            "bufferView" : 5,
            "componentType" : 5126,
            "count" : 2121,
            "max" : [
                13.854959487915039,
                1.00274658203125,
                -1.3740615844726562
            ],
            "min" : [
                -13.854963302612305,
                -4.834977149963379,
                -35.502784729003906
            ],
            "type" : "VEC3"
        },
        {
            "bufferView" : 6,
            "componentType" : 5126,
            "count" : 2121,
            "type" : "VEC3"
        },
        {
            "bufferView" : 7,
            "componentType" : 5126,
            "count" : 2121,
            "type" : "VEC2"
        },
        {
            "bufferView" : 8,
            "componentType" : 5123,
            "count" : 5532,
            "type" : "SCALAR"
        }
    ],
    "bufferViews" : [
        {
            "buffer" : 0,
            "byteLength" : 46404,
            "byteOffset" : 0
        },
        {
            "buffer" : 0,
            "byteLength" : 46404,
            "byteOffset" : 46404
        },
        {
            "buffer" : 0,
            "byteLength" : 30936,
            "byteOffset" : 92808
        },
        {
            "buffer" : 0,
            "byteLength" : 43920,
            "byteOffset" : 123744
        },
        {
            "buffer" : 0,
            "byteLength" : 159562,
            "byteOffset" : 167664
        },
        {
            "buffer" : 0,
            "byteLength" : 25452,
            "byteOffset" : 327228
        },
        {
            "buffer" : 0,
            "byteLength" : 25452,
            "byteOffset" : 352680
        },
        {
            "buffer" : 0,
            "byteLength" : 16968,
            "byteOffset" : 378132
        },
        {
            "buffer" : 0,
            "byteLength" : 11064,
            "byteOffset" : 395100
        }
    ],
    "buffers" : [
        {
            "byteLength" : 406164,
            "uri" : "data:application/octet-stream;base64,"
        }
    ]
}
