{
    "asset" : {
        "generator" : "Khronos glTF Blender I/O v0.9.36",
        "version" : "2.0"
    },
    "scene" : 0,
    "scenes" : [
        {
            "name" : "Scene",
            "nodes" : [
                0
            ]
        }
    ],
    "nodes" : [
        {
            "mesh" : 0,
            "name" : "Snowboard",
            "rotation" : [
                0.7071068286895752,
                0,
                0,
                0.7071067094802856
            ],
            "scale" : [
                0.009999999776482582,
                0.009999999776482582,
                0.009999999776482582
            ],
            "translation" : [
                0,
                0.6455608010292053,
                0
            ]
        }
    ],
    "materials" : [
        {
            "doubleSided" : true,
            "name" : "Board.002",
            "pbrMetallicRoughness" : {
                "baseColorTexture" : {
                    "index" : 0,
                    "texCoord" : 0
                },
                "metallicFactor" : 0.08636362850666046,
                "roughnessFactor" : 0.16087070107460022
            }
        },
        {
            "doubleSided" : true,
            "name" : "Metal.002",
            "pbrMetallicRoughness" : {
                "baseColorFactor" : [
                    0.5882353186607361,
                    0.5882353186607361,
                    0.5882353186607361,
                    1
                ],
                "metallicFactor" : 1,
                "roughnessFactor" : 0.33005914092063904
            }
        },
        {
            "doubleSided" : true,
            "name" : "Black.002",
            "pbrMetallicRoughness" : {
                "baseColorFactor" : [
                    0,
                    0,
                    0,
                    1
                ],
                "metallicFactor" : 1,
                "roughnessFactor" : 0.858578622341156
            }
        }
    ],
    "meshes" : [
        {
            "name" : "Mesh.002",
            "primitives" : [
                {
                    "attributes" : {
                        "POSITION" : 0,
                        "NORMAL" : 1,
                        "TEXCOORD_0" : 2
                    },
                    "indices" : 3,
                    "material" : 0
                },
                {
                    "attributes" : {
                        "POSITION" : 4,
                        "NORMAL" : 5,
                        "TEXCOORD_0" : 6
                    },
                    "indices" : 7,
                    "material" : 1
                },
                {
                    "attributes" : {
                        "POSITION" : 8,
                        "NORMAL" : 9,
                        "TEXCOORD_0" : 10
                    },
                    "indices" : 11,
                    "material" : 2
                }
            ]
        }
    ],
    "textures" : [
        {
            "source" : 0
        }
    ],
    "images" : [
        {
            "bufferView" : 4,
            "mimeType" : "image/png",
            "name" : "Snowboard_Tex"
        }
    ],
    "accessors" : [
        {
            "bufferView" : 0,
            "componentType" : 5126,
            "count" : 524,
            "max" : [
                11.765110969543457,
                3.5927624702453613,
                64.56414794921875
            ],
            "min" : [
                -11.765110969543457,
                -1.3495190143585205,
                -59.4846076965332
            ],
            "type" : "VEC3"
        },
        {
            "bufferView" : 1,
            "componentType" : 5126,
            "count" : 524,
            "type" : "VEC3"
        },
        {
            "bufferView" : 2,
            "componentType" : 5126,
            "count" : 524,
            "type" : "VEC2"
        },
        {
            "bufferView" : 3,
            "componentType" : 5123,
            "count" : 2478,
            "type" : "SCALAR"
        },
        {
            "bufferView" : 5,
            "componentType" : 5126,
            "count" : 2830,
            "max" : [
                11.765110969543457,
                2.952505111694336,
                59.4846076965332
            ],
            "min" : [
                -11.765110969543457,
                -1.3203084468841553,
                -59.4846076965332
            ],
            "type" : "VEC3"
        },
        {
            "bufferView" : 6,
            "componentType" : 5126,
            "count" : 2830,
            "type" : "VEC3"
        },
        {
            "bufferView" : 7,
            "componentType" : 5126,
            "count" : 2830,
            "type" : "VEC2"
        },
        {
            "bufferView" : 8,
            "componentType" : 5123,
            "count" : 8904,
            "type" : "SCALAR"
        },
        {
            "bufferView" : 9,
            "componentType" : 5126,
            "count" : 312,
            "max" : [
                1.7034186124801636,
                1.606266975402832,
                24.728986740112305
            ],
            "min" : [
                -1.7034186124801636,
                0.9761143326759338,
                -24.728986740112305
            ],
            "type" : "VEC3"
        },
        {
            "bufferView" : 10,
            "componentType" : 5126,
            "count" : 312,
            "type" : "VEC3"
        },
        {
            "bufferView" : 11,
            "componentType" : 5126,
            "count" : 312,
            "type" : "VEC2"
        },
        {
            "bufferView" : 12,
            "componentType" : 5123,
            "count" : 864,
            "type" : "SCALAR"
        }
    ],
    "bufferViews" : [
        {
            "buffer" : 0,
            "byteLength" : 6288,
            "byteOffset" : 0
        },
        {
            "buffer" : 0,
            "byteLength" : 6288,
            "byteOffset" : 6288
        },
        {
            "buffer" : 0,
            "byteLength" : 4192,
            "byteOffset" : 12576
        },
        {
            "buffer" : 0,
            "byteLength" : 4956,
            "byteOffset" : 16768
        },
        {
            "buffer" : 0,
            "byteLength" : 773976,
            "byteOffset" : 21724
        },
        {
            "buffer" : 0,
            "byteLength" : 33960,
            "byteOffset" : 795700
        },
        {
            "buffer" : 0,
            "byteLength" : 33960,
            "byteOffset" : 829660
        },
        {
            "buffer" : 0,
            "byteLength" : 22640,
            "byteOffset" : 863620
        },
        {
            "buffer" : 0,
            "byteLength" : 17808,
            "byteOffset" : 886260
        },
        {
            "buffer" : 0,
            "byteLength" : 3744,
            "byteOffset" : 904068
        },
        {
            "buffer" : 0,
            "byteLength" : 3744,
            "byteOffset" : 907812
        },
        {
            "buffer" : 0,
            "byteLength" : 2496,
            "byteOffset" : 911556
        },
        {
            "buffer" : 0,
            "byteLength" : 1728,
            "byteOffset" : 914052
        }
    ],
    "buffers" : [
        {
            "byteLength" : 915780,
            "uri" : "data:application/octet-stream;base64,"
        }
    ]
}
