{
    "asset" : {
        "generator" : "Khronos glTF Blender I/O v0.9.36",
        "version" : "2.0"
    },
    "scene" : 0,
    "scenes" : [
        {
            "name" : "Scene",
            "nodes" : [
                0
            ]
        }
    ],
    "nodes" : [
        {
            "mesh" : 0,
            "name" : "Snowboard",
            "rotation" : [
                0.7071068286895752,
                0,
                0,
                0.7071067094802856
            ],
            "scale" : [
                0.009999999776482582,
                0.009999999776482582,
                0.009999999776482582
            ],
            "translation" : [
                0,
                0.6455608010292053,
                0
            ]
        }
    ],
    "materials" : [
        {
            "doubleSided" : true,
            "name" : "Board.003",
            "pbrMetallicRoughness" : {
                "baseColorTexture" : {
                    "index" : 0,
                    "texCoord" : 0
                },
                "metallicFactor" : 0.05454543977975845,
                "roughnessFactor" : 0.15177974104881287
            }
        },
        {
            "doubleSided" : true,
            "name" : "Metal.003",
            "pbrMetallicRoughness" : {
                "baseColorFactor" : [
                    0.5882353186607361,
                    0.5882353186607361,
                    0.5882353186607361,
                    1
                ],
                "metallicFactor" : 1,
                "roughnessFactor" : 0.19369551539421082
            }
        },
        {
            "doubleSided" : true,
            "name" : "Black.003",
            "pbrMetallicRoughness" : {
                "baseColorFactor" : [
                    0,
                    0,
                    0,
                    1
                ],
                "metallicFactor" : 1,
                "roughnessFactor" : 0.858578622341156
            }
        }
    ],
    "meshes" : [
        {
            "name" : "Mesh.003",
            "primitives" : [
                {
                    "attributes" : {
                        "POSITION" : 0,
                        "NORMAL" : 1,
                        "TEXCOORD_0" : 2
                    },
                    "indices" : 3,
                    "material" : 0
                },
                {
                    "attributes" : {
                        "POSITION" : 4,
                        "NORMAL" : 5,
                        "TEXCOORD_0" : 6
                    },
                    "indices" : 7,
                    "material" : 1
                },
                {
                    "attributes" : {
                        "POSITION" : 8,
                        "NORMAL" : 9,
                        "TEXCOORD_0" : 10
                    },
                    "indices" : 11,
                    "material" : 2
                }
            ]
        }
    ],
    "textures" : [
        {
            "source" : 0
        }
    ],
    "images" : [
        {
            "bufferView" : 4,
            "mimeType" : "image/png",
            "name" : "Snowboard_Tex"
        }
    ],
    "accessors" : [
        {
            "bufferView" : 0,
            "componentType" : 5126,
            "count" : 1933,
            "max" : [
                11.676616668701172,
                3.380931854248047,
                64.56414794921875
            ],
            "min" : [
                -11.676616668701172,
                -1.2720707654953003,
                -59.389564514160156
            ],
            "type" : "VEC3"
        },
        {
            "bufferView" : 1,
            "componentType" : 5126,
            "count" : 1933,
            "type" : "VEC3"
        },
        {
            "bufferView" : 2,
            "componentType" : 5126,
            "count" : 1933,
            "type" : "VEC2"
        },
        {
            "bufferView" : 3,
            "componentType" : 5123,
            "count" : 9912,
            "type" : "SCALAR"
        },
        {
            "bufferView" : 5,
            "componentType" : 5126,
            "count" : 11966,
            "max" : [
                11.676616668701172,
                2.9294896125793457,
                59.389564514160156
            ],
            "min" : [
                -11.676616668701172,
                -1.2336235046386719,
                -59.389564514160156
            ],
            "type" : "VEC3"
        },
        {
            "bufferView" : 6,
            "componentType" : 5126,
            "count" : 11966,
            "type" : "VEC3"
        },
        {
            "bufferView" : 7,
            "componentType" : 5126,
            "count" : 11966,
            "type" : "VEC2"
        },
        {
            "bufferView" : 8,
            "componentType" : 5123,
            "count" : 35616,
            "type" : "SCALAR"
        },
        {
            "bufferView" : 9,
            "componentType" : 5126,
            "count" : 1176,
            "max" : [
                1.68247389793396,
                1.6058483123779297,
                24.70822525024414
            ],
            "min" : [
                -1.68247389793396,
                0.9789674282073975,
                -24.70822525024414
            ],
            "type" : "VEC3"
        },
        {
            "bufferView" : 10,
            "componentType" : 5126,
            "count" : 1176,
            "type" : "VEC3"
        },
        {
            "bufferView" : 11,
            "componentType" : 5126,
            "count" : 1176,
            "type" : "VEC2"
        },
        {
            "bufferView" : 12,
            "componentType" : 5123,
            "count" : 5184,
            "type" : "SCALAR"
        }
    ],
    "bufferViews" : [
        {
            "buffer" : 0,
            "byteLength" : 23196,
            "byteOffset" : 0
        },
        {
            "buffer" : 0,
            "byteLength" : 23196,
            "byteOffset" : 23196
        },
        {
            "buffer" : 0,
            "byteLength" : 15464,
            "byteOffset" : 46392
        },
        {
            "buffer" : 0,
            "byteLength" : 19824,
            "byteOffset" : 61856
        },
        {
            "buffer" : 0,
            "byteLength" : 773976,
            "byteOffset" : 81680
        },
        {
            "buffer" : 0,
            "byteLength" : 143592,
            "byteOffset" : 855656
        },
        {
            "buffer" : 0,
            "byteLength" : 143592,
            "byteOffset" : 999248
        },
        {
            "buffer" : 0,
            "byteLength" : 95728,
            "byteOffset" : 1142840
        },
        {
            "buffer" : 0,
            "byteLength" : 71232,
            "byteOffset" : 1238568
        },
        {
            "buffer" : 0,
            "byteLength" : 14112,
            "byteOffset" : 1309800
        },
        {
            "buffer" : 0,
            "byteLength" : 14112,
            "byteOffset" : 1323912
        },
        {
            "buffer" : 0,
            "byteLength" : 9408,
            "byteOffset" : 1338024
        },
        {
            "buffer" : 0,
            "byteLength" : 10368,
            "byteOffset" : 1347432
        }
    ],
    "buffers" : [
        {
            "byteLength" : 1357800,
            "uri" : "data:application/octet-stream;base64,"
        }
    ]
}
