{
    "asset" : {
        "generator" : "Khronos glTF Blender I/O v0.9.36",
        "version" : "2.0"
    },
    "scene" : 0,
    "scenes" : [
        {
            "name" : "Scene",
            "nodes" : [
                0,
                1,
                2
            ]
        }
    ],
    "nodes" : [
        {
            "name" : "Light",
            "rotation" : [
                0.16907575726509094,
                0.7558803558349609,
                -0.27217137813568115,
                0.570947527885437
            ],
            "translation" : [
                4.076245307922363,
                5.903861999511719,
                -1.0054539442062378
            ]
        },
        {
            "name" : "Camera",
            "rotation" : [
                0.483536034822464,
                0.33687159419059753,
                -0.20870360732078552,
                0.7804827094078064
            ],
            "translation" : [
                7.358891487121582,
                4.958309173583984,
                6.925790786743164
            ]
        },
        {
            "mesh" : 0,
            "name" : "geo_SpanishOmeletteG1_000",
            "rotation" : [
                0.7071068286895752,
                0,
                0,
                0.7071067094802856
            ],
            "scale" : [
                0.009999999776482582,
                0.009999999776482582,
                0.009999999776482582
            ],
            "translation" : [
                0,
                0.9096223711967468,
                0.03079324960708618
            ]
        }
    ],
    "materials" : [
        {
            "doubleSided" : true,
            "name" : "01 - Default",
            "pbrMetallicRoughness" : {
                "baseColorFactor" : [
                    0.803921639919281,
                    0.803921639919281,
                    0.803921639919281,
                    1
                ],
                "metallicFactor" : 1,
                "roughnessFactor" : 0.858578622341156
            }
        },
        {
            "doubleSided" : true,
            "name" : "shd_2",
            "pbrMetallicRoughness" : {
                "baseColorFactor" : [
                    0.019607843831181526,
                    0.019607843831181526,
                    0.019607843831181526,
                    1
                ],
                "metallicFactor" : 1,
                "roughnessFactor" : 0.3272828757762909
            }
        }
    ],
    "meshes" : [
        {
            "name" : "Mesh",
            "primitives" : [
                {
                    "attributes" : {
                        "POSITION" : 0,
                        "NORMAL" : 1,
                        "TEXCOORD_0" : 2
                    },
                    "indices" : 3,
                    "material" : 0
                },
                {
                    "attributes" : {
                        "POSITION" : 4,
                        "NORMAL" : 5,
                        "TEXCOORD_0" : 6
                    },
                    "indices" : 7,
                    "material" : 1
                }
            ]
        }
    ],
    "accessors" : [
        {
            "bufferView" : 0,
            "componentType" : 5126,
            "count" : 22458,
            "max" : [
                24.039949417114258,
                9.22225570678711,
                88.85144805908203
            ],
            "min" : [
                -24.039949417114258,
                -2.9894776344299316,
                -88.89421081542969
            ],
            "type" : "VEC3"
        },
        {
            "bufferView" : 1,
            "componentType" : 5126,
            "count" : 22458,
            "type" : "VEC3"
        },
        {
            "bufferView" : 2,
            "componentType" : 5126,
            "count" : 22458,
            "type" : "VEC2"
        },
        {
            "bufferView" : 3,
            "componentType" : 5123,
            "count" : 33744,
            "type" : "SCALAR"
        },
        {
            "bufferView" : 4,
            "componentType" : 5126,
            "count" : 3876,
            "max" : [
                13.854959487915039,
                5.168046951293945,
                86.80828857421875
            ],
            "min" : [
                -13.854963302612305,
                -1.071908950805664,
                52.36518096923828
            ],
            "type" : "VEC3"
        },
        {
            "bufferView" : 5,
            "componentType" : 5126,
            "count" : 3876,
            "type" : "VEC3"
        },
        {
            "bufferView" : 6,
            "componentType" : 5126,
            "count" : 3876,
            "type" : "VEC2"
        },
        {
            "bufferView" : 7,
            "componentType" : 5123,
            "count" : 5532,
            "type" : "SCALAR"
        }
    ],
    "bufferViews" : [
        {
            "buffer" : 0,
            "byteLength" : 269496,
            "byteOffset" : 0
        },
        {
            "buffer" : 0,
            "byteLength" : 269496,
            "byteOffset" : 269496
        },
        {
            "buffer" : 0,
            "byteLength" : 179664,
            "byteOffset" : 538992
        },
        {
            "buffer" : 0,
            "byteLength" : 67488,
            "byteOffset" : 718656
        },
        {
            "buffer" : 0,
            "byteLength" : 46512,
            "byteOffset" : 786144
        },
        {
            "buffer" : 0,
            "byteLength" : 46512,
            "byteOffset" : 832656
        },
        {
            "buffer" : 0,
            "byteLength" : 31008,
            "byteOffset" : 879168
        },
        {
            "buffer" : 0,
            "byteLength" : 11064,
            "byteOffset" : 910176
        }
    ],
    "buffers" : [
        {
            "byteLength" : 921240,
            "uri" : "data:application/octet-stream;base64,"
        }
    ]
}
