{
    "asset" : {
        "generator" : "Khronos glTF Blender I/O v0.9.36",
        "version" : "2.0"
    },
    "scene" : 0,
    "scenes" : [
        {
            "name" : "Scene",
            "nodes" : [
                0,
                1,
                2
            ]
        }
    ],
    "nodes" : [
        {
            "name" : "Light",
            "rotation" : [
                0.16907575726509094,
                0.7558803558349609,
                -0.27217137813568115,
                0.570947527885437
            ],
            "translation" : [
                4.076245307922363,
                5.903861999511719,
                -1.0054539442062378
            ]
        },
        {
            "name" : "Camera",
            "rotation" : [
                0.483536034822464,
                0.33687159419059753,
                -0.20870360732078552,
                0.7804827094078064
            ],
            "translation" : [
                7.358891487121582,
                4.958309173583984,
                6.925790786743164
            ]
        },
        {
            "mesh" : 0,
            "name" : "geo_1_spanishomelette_000",
            "rotation" : [
                0.7071068286895752,
                0,
                0,
                0.7071067094802856
            ],
            "scale" : [
                0.009999999776482582,
                0.009999999776482582,
                0.009999999776482582
            ],
            "translation" : [
                0,
                0.9499119520187378,
                -0.04256349429488182
            ]
        }
    ],
    "materials" : [
        {
            "doubleSided" : true,
            "name" : "Body.002",
            "pbrMetallicRoughness" : {
                "baseColorFactor" : [
                    0.803921639919281,
                    0.803921639919281,
                    0.803921639919281,
                    1
                ],
                "metallicFactor" : 1,
                "roughnessFactor" : 0.8318207263946533
            }
        },
        {
            "doubleSided" : true,
            "name" : "Props.002",
            "pbrMetallicRoughness" : {
                "baseColorFactor" : [
                    0.019607843831181526,
                    0.019607843831181526,
                    0.019607843831181526,
                    1
                ],
                "metallicFactor" : 1,
                "roughnessFactor" : 0.3272828757762909
            }
        }
    ],
    "meshes" : [
        {
            "name" : "Mesh.002",
            "primitives" : [
                {
                    "attributes" : {
                        "POSITION" : 0,
                        "NORMAL" : 1,
                        "TEXCOORD_0" : 2
                    },
                    "indices" : 3,
                    "material" : 0
                },
                {
                    "attributes" : {
                        "POSITION" : 4,
                        "NORMAL" : 5,
                        "TEXCOORD_0" : 6
                    },
                    "indices" : 7,
                    "material" : 1
                }
            ]
        }
    ],
    "accessors" : [
        {
            "bufferView" : 0,
            "componentType" : 5126,
            "count" : 7607,
            "max" : [
                24.06559181213379,
                8.899441719055176,
                94.99125671386719
            ],
            "min" : [
                -24.06559181213379,
                -3.0057854652404785,
                -88.92324829101562
            ],
            "type" : "VEC3"
        },
        {
            "bufferView" : 1,
            "componentType" : 5126,
            "count" : 7607,
            "type" : "VEC3"
        },
        {
            "bufferView" : 2,
            "componentType" : 5126,
            "count" : 7607,
            "type" : "VEC2"
        },
        {
            "bufferView" : 3,
            "componentType" : 5123,
            "count" : 32010,
            "type" : "SCALAR"
        },
        {
            "bufferView" : 4,
            "componentType" : 5126,
            "count" : 2034,
            "max" : [
                13.854959487915039,
                5.168046951293945,
                86.80828857421875
            ],
            "min" : [
                -13.854963302612305,
                -1.071908950805664,
                52.36518096923828
            ],
            "type" : "VEC3"
        },
        {
            "bufferView" : 5,
            "componentType" : 5126,
            "count" : 2034,
            "type" : "VEC3"
        },
        {
            "bufferView" : 6,
            "componentType" : 5126,
            "count" : 2034,
            "type" : "VEC2"
        },
        {
            "bufferView" : 7,
            "componentType" : 5123,
            "count" : 5532,
            "type" : "SCALAR"
        }
    ],
    "bufferViews" : [
        {
            "buffer" : 0,
            "byteLength" : 91284,
            "byteOffset" : 0
        },
        {
            "buffer" : 0,
            "byteLength" : 91284,
            "byteOffset" : 91284
        },
        {
            "buffer" : 0,
            "byteLength" : 60856,
            "byteOffset" : 182568
        },
        {
            "buffer" : 0,
            "byteLength" : 64020,
            "byteOffset" : 243424
        },
        {
            "buffer" : 0,
            "byteLength" : 24408,
            "byteOffset" : 307444
        },
        {
            "buffer" : 0,
            "byteLength" : 24408,
            "byteOffset" : 331852
        },
        {
            "buffer" : 0,
            "byteLength" : 16272,
            "byteOffset" : 356260
        },
        {
            "buffer" : 0,
            "byteLength" : 11064,
            "byteOffset" : 372532
        }
    ],
    "buffers" : [
        {
            "byteLength" : 383596,
            "uri" : "data:application/octet-stream;base64,"
        }
    ]
}
