{
    "asset" : {
        "generator" : "Khronos glTF Blender I/O v0.9.36",
        "version" : "2.0"
    },
    "scene" : 0,
    "scenes" : [
        {
            "name" : "Scene",
            "nodes" : [
                0,
                1,
                2
            ]
        }
    ],
    "nodes" : [
        {
            "name" : "Light",
            "rotation" : [
                0.16907575726509094,
                0.7558803558349609,
                -0.27217137813568115,
                0.570947527885437
            ],
            "translation" : [
                4.076245307922363,
                5.903861999511719,
                -1.0054539442062378
            ]
        },
        {
            "name" : "Camera",
            "rotation" : [
                0.483536034822464,
                0.33687159419059753,
                -0.20870360732078552,
                0.7804827094078064
            ],
            "translation" : [
                7.358891487121582,
                4.958309173583984,
                6.925790786743164
            ]
        },
        {
            "mesh" : 0,
            "name" : "1_SpanishOmelette",
            "rotation" : [
                0.7071068286895752,
                0,
                0,
                0.7071067094802856
            ],
            "scale" : [
                0.009999999776482582,
                0.009999999776482582,
                0.009999999776482582
            ]
        }
    ],
    "materials" : [
        {
            "doubleSided" : true,
            "name" : "Body.004",
            "pbrMetallicRoughness" : {
                "baseColorFactor" : [
                    0.7960785031318665,
                    0.7960785031318665,
                    0.7960785031318665,
                    1
                ],
                "metallicFactor" : 1,
                "roughnessFactor" : 0.7171573042869568
            }
        },
        {
            "doubleSided" : true,
            "name" : "Props.004",
            "pbrMetallicRoughness" : {
                "baseColorFactor" : [
                    0.011764707043766975,
                    0.011764707043766975,
                    0.011764707043766975,
                    1
                ],
                "metallicFactor" : 1,
                "roughnessFactor" : 0.7171573042869568
            }
        }
    ],
    "meshes" : [
        {
            "name" : "Mesh.004",
            "primitives" : [
                {
                    "attributes" : {
                        "POSITION" : 0,
                        "NORMAL" : 1,
                        "TEXCOORD_0" : 2
                    },
                    "indices" : 3,
                    "material" : 0
                },
                {
                    "attributes" : {
                        "POSITION" : 4,
                        "NORMAL" : 5,
                        "TEXCOORD_0" : 6
                    },
                    "indices" : 7,
                    "material" : 1
                }
            ]
        }
    ],
    "accessors" : [
        {
            "bufferView" : 0,
            "componentType" : 5126,
            "count" : 21344,
            "max" : [
                24.06559181213379,
                4.478531360626221,
                6.1025257309665903e-05
            ],
            "min" : [
                -24.06559181213379,
                -7.262118816375732,
                -184.41993713378906
            ],
            "type" : "VEC3"
        },
        {
            "bufferView" : 1,
            "componentType" : 5126,
            "count" : 21344,
            "type" : "VEC3"
        },
        {
            "bufferView" : 2,
            "componentType" : 5126,
            "count" : 21344,
            "type" : "VEC2"
        },
        {
            "bufferView" : 3,
            "componentType" : 5123,
            "count" : 32010,
            "type" : "SCALAR"
        },
        {
            "bufferView" : 4,
            "componentType" : 5126,
            "count" : 3872,
            "max" : [
                13.854959487915039,
                0.9116986989974976,
                -8.182907104492188
            ],
            "min" : [
                -13.854962348937988,
                -5.328251361846924,
                -42.626014709472656
            ],
            "type" : "VEC3"
        },
        {
            "bufferView" : 5,
            "componentType" : 5126,
            "count" : 3872,
            "type" : "VEC3"
        },
        {
            "bufferView" : 6,
            "componentType" : 5126,
            "count" : 3872,
            "type" : "VEC2"
        },
        {
            "bufferView" : 7,
            "componentType" : 5123,
            "count" : 5532,
            "type" : "SCALAR"
        }
    ],
    "bufferViews" : [
        {
            "buffer" : 0,
            "byteLength" : 256128,
            "byteOffset" : 0
        },
        {
            "buffer" : 0,
            "byteLength" : 256128,
            "byteOffset" : 256128
        },
        {
            "buffer" : 0,
            "byteLength" : 170752,
            "byteOffset" : 512256
        },
        {
            "buffer" : 0,
            "byteLength" : 64020,
            "byteOffset" : 683008
        },
        {
            "buffer" : 0,
            "byteLength" : 46464,
            "byteOffset" : 747028
        },
        {
            "buffer" : 0,
            "byteLength" : 46464,
            "byteOffset" : 793492
        },
        {
            "buffer" : 0,
            "byteLength" : 30976,
            "byteOffset" : 839956
        },
        {
            "buffer" : 0,
            "byteLength" : 11064,
            "byteOffset" : 870932
        }
    ],
    "buffers" : [
        {
            "byteLength" : 881996,
            "uri" : "data:application/octet-stream;base64,"
        }
    ]
}
