{
    "asset" : {
        "generator" : "Khronos glTF Blender I/O v0.9.36",
        "version" : "2.0"
    },
    "scene" : 0,
    "scenes" : [
        {
            "name" : "Scene",
            "nodes" : [
                0,
                1,
                2
            ]
        }
    ],
    "nodes" : [
        {
            "name" : "Light",
            "rotation" : [
                0.16907575726509094,
                0.7558803558349609,
                -0.27217137813568115,
                0.570947527885437
            ],
            "translation" : [
                4.076245307922363,
                5.903861999511719,
                -1.0054539442062378
            ]
        },
        {
            "name" : "Camera",
            "rotation" : [
                0.483536034822464,
                0.33687159419059753,
                -0.20870360732078552,
                0.7804827094078064
            ],
            "translation" : [
                7.358891487121582,
                4.958309173583984,
                6.925790786743164
            ]
        },
        {
            "mesh" : 0,
            "name" : "1_SpanishOmelette",
            "rotation" : [
                0.7071068286895752,
                0,
                0,
                0.7071067094802856
            ]
        }
    ],
    "materials" : [
        {
            "doubleSided" : true,
            "name" : "Body.010",
            "pbrMetallicRoughness" : {
                "baseColorFactor" : [
                    0.803921639919281,
                    0.803921639919281,
                    0.803921639919281,
                    1
                ],
                "metallicFactor" : 1,
                "roughnessFactor" : 0.8318207263946533
            }
        },
        {
            "doubleSided" : true,
            "name" : "Props.010",
            "pbrMetallicRoughness" : {
                "baseColorFactor" : [
                    0.019607843831181526,
                    0.019607843831181526,
                    0.019607843831181526,
                    1
                ],
                "metallicFactor" : 1,
                "roughnessFactor" : 0.3272828757762909
            }
        }
    ],
    "meshes" : [
        {
            "name" : "Mesh.010",
            "primitives" : [
                {
                    "attributes" : {
                        "POSITION" : 0,
                        "NORMAL" : 1,
                        "TEXCOORD_0" : 2
                    },
                    "indices" : 3,
                    "material" : 0
                },
                {
                    "attributes" : {
                        "POSITION" : 4,
                        "NORMAL" : 5,
                        "TEXCOORD_0" : 6
                    },
                    "indices" : 7,
                    "material" : 1
                }
            ]
        }
    ],
    "accessors" : [
        {
            "bufferView" : 0,
            "componentType" : 5126,
            "count" : 9307,
            "max" : [
                0.24065591394901276,
                0.04478531330823898,
                6.102525844653428e-07
            ],
            "min" : [
                -0.24065591394901276,
                -0.072621189057827,
                -1.844199299812317
            ],
            "type" : "VEC3"
        },
        {
            "bufferView" : 1,
            "componentType" : 5126,
            "count" : 9307,
            "type" : "VEC3"
        },
        {
            "bufferView" : 2,
            "componentType" : 5126,
            "count" : 9307,
            "type" : "VEC2"
        },
        {
            "bufferView" : 3,
            "componentType" : 5123,
            "count" : 32010,
            "type" : "SCALAR"
        },
        {
            "bufferView" : 4,
            "componentType" : 5126,
            "count" : 2158,
            "max" : [
                0.1385495960712433,
                0.009116986766457558,
                -0.08182907104492188
            ],
            "min" : [
                -0.13854962587356567,
                -0.053282514214515686,
                -0.4262601435184479
            ],
            "type" : "VEC3"
        },
        {
            "bufferView" : 5,
            "componentType" : 5126,
            "count" : 2158,
            "type" : "VEC3"
        },
        {
            "bufferView" : 6,
            "componentType" : 5126,
            "count" : 2158,
            "type" : "VEC2"
        },
        {
            "bufferView" : 7,
            "componentType" : 5123,
            "count" : 5532,
            "type" : "SCALAR"
        }
    ],
    "bufferViews" : [
        {
            "buffer" : 0,
            "byteLength" : 111684,
            "byteOffset" : 0
        },
        {
            "buffer" : 0,
            "byteLength" : 111684,
            "byteOffset" : 111684
        },
        {
            "buffer" : 0,
            "byteLength" : 74456,
            "byteOffset" : 223368
        },
        {
            "buffer" : 0,
            "byteLength" : 64020,
            "byteOffset" : 297824
        },
        {
            "buffer" : 0,
            "byteLength" : 25896,
            "byteOffset" : 361844
        },
        {
            "buffer" : 0,
            "byteLength" : 25896,
            "byteOffset" : 387740
        },
        {
            "buffer" : 0,
            "byteLength" : 17264,
            "byteOffset" : 413636
        },
        {
            "buffer" : 0,
            "byteLength" : 11064,
            "byteOffset" : 430900
        }
    ],
    "buffers" : [
        {
            "byteLength" : 441964,
            "uri" : "data:application/octet-stream;base64,"
        }
    ]
}
