{
    "asset" : {
        "generator" : "Khronos glTF Blender I/O v0.9.36",
        "version" : "2.0"
    },
    "scene" : 0,
    "scenes" : [
        {
            "name" : "Scene",
            "nodes" : [
                0
            ]
        }
    ],
    "nodes" : [
        {
            "mesh" : 0,
            "name" : "geo_4_SpicyFlyingTurtle_000",
            "scale" : [
                0.009999999776482582,
                0.009999999776482582,
                0.009999999776482582
            ],
            "translation" : [
                0,
                0.0853523463010788,
                0
            ]
        }
    ],
    "materials" : [
        {
            "doubleSided" : true,
            "name" : "Body.003",
            "pbrMetallicRoughness" : {
                "baseColorTexture" : {
                    "index" : 0,
                    "texCoord" : 0
                },
                "metallicFactor" : 1,
                "roughnessFactor" : 0.7171573042869568
            }
        }
    ],
    "meshes" : [
        {
            "name" : "Mesh.003",
            "primitives" : [
                {
                    "attributes" : {
                        "POSITION" : 0,
                        "NORMAL" : 1,
                        "TEXCOORD_0" : 2
                    },
                    "indices" : 3,
                    "material" : 0
                }
            ]
        }
    ],
    "textures" : [
        {
            "source" : 0
        }
    ],
    "images" : [
        {
            "bufferView" : 4,
            "mimeType" : "image/png",
            "name" : "T_SpicyFlyingTurtle_Low"
        }
    ],
    "accessors" : [
        {
            "bufferView" : 0,
            "componentType" : 5126,
            "count" : 7107,
            "max" : [
                25.939876556396484,
                174.9461669921875,
                4.500389575958252
            ],
            "min" : [
                -25.939878463745117,
                -8.539365768432617,
                -4.784580707550049
            ],
            "type" : "VEC3"
        },
        {
            "bufferView" : 1,
            "componentType" : 5126,
            "count" : 7107,
            "type" : "VEC3"
        },
        {
            "bufferView" : 2,
            "componentType" : 5126,
            "count" : 7107,
            "type" : "VEC2"
        },
        {
            "bufferView" : 3,
            "componentType" : 5123,
            "count" : 30960,
            "type" : "SCALAR"
        }
    ],
    "bufferViews" : [
        {
            "buffer" : 0,
            "byteLength" : 85284,
            "byteOffset" : 0
        },
        {
            "buffer" : 0,
            "byteLength" : 85284,
            "byteOffset" : 85284
        },
        {
            "buffer" : 0,
            "byteLength" : 56856,
            "byteOffset" : 170568
        },
        {
            "buffer" : 0,
            "byteLength" : 61920,
            "byteOffset" : 227424
        },
        {
            "buffer" : 0,
            "byteLength" : 457379,
            "byteOffset" : 289344
        }
    ],
    "buffers" : [
        {
            "byteLength" : 746724,
            "uri" : "data:application/octet-stream;base64,"
        }
    ]
}
