{
    "asset" : {
        "generator" : "Khronos glTF Blender I/O v0.9.36",
        "version" : "2.0"
    },
    "scene" : 0,
    "scenes" : [
        {
            "name" : "Scene",
            "nodes" : [
                0
            ]
        }
    ],
    "nodes" : [
        {
            "mesh" : 0,
            "name" : "SM_SurfBoard",
            "rotation" : [
                0.7071067690849304,
                0,
                0,
                0.7071067690849304
            ],
            "scale" : [
                0.11591503769159317,
                0.11591503769159317,
                0.11591503769159317
            ]
        }
    ],
    "materials" : [
        {
            "doubleSided" : true,
            "name" : "Mat_SurfBoard",
            "pbrMetallicRoughness" : {
                "baseColorTexture" : {
                    "index" : 0,
                    "texCoord" : 0
                },
                "metallicRoughnessTexture" : {
                    "index" : 1,
                    "texCoord" : 0
                }
            }
        }
    ],
    "meshes" : [
        {
            "name" : "Plane.005",
            "primitives" : [
                {
                    "attributes" : {
                        "POSITION" : 0,
                        "NORMAL" : 1,
                        "TEXCOORD_0" : 2
                    },
                    "indices" : 3,
                    "material" : 0
                }
            ]
        }
    ],
    "textures" : [
        {
            "source" : 0
        },
        {
            "source" : 1
        }
    ],
    "images" : [
        {
            "bufferView" : 4,
            "mimeType" : "image/png",
            "name" : "T_SM_SurfBoard_albedo"
        },
        {
            "bufferView" : 5,
            "mimeType" : "image/png",
            "name" : "T_SM_SurfBoard_metallic-T_SM_SurfBoard_roughness"
        }
    ],
    "accessors" : [
        {
            "bufferView" : 0,
            "componentType" : 5126,
            "count" : 3019,
            "max" : [
                0.9919421672821045,
                0.585818886756897,
                3.7354485988616943
            ],
            "min" : [
                -0.9919421076774597,
                -0.18399231135845184,
                -3.498553991317749
            ],
            "type" : "VEC3"
        },
        {
            "bufferView" : 1,
            "componentType" : 5126,
            "count" : 3019,
            "type" : "VEC3"
        },
        {
            "bufferView" : 2,
            "componentType" : 5126,
            "count" : 3019,
            "type" : "VEC2"
        },
        {
            "bufferView" : 3,
            "componentType" : 5123,
            "count" : 12348,
            "type" : "SCALAR"
        }
    ],
    "bufferViews" : [
        {
            "buffer" : 0,
            "byteLength" : 36228,
            "byteOffset" : 0
        },
        {
            "buffer" : 0,
            "byteLength" : 36228,
            "byteOffset" : 36228
        },
        {
            "buffer" : 0,
            "byteLength" : 24152,
            "byteOffset" : 72456
        },
        {
            "buffer" : 0,
            "byteLength" : 24696,
            "byteOffset" : 96608
        },
        {
            "buffer" : 0,
            "byteLength" : 304122,
            "byteOffset" : 121304
        },
        {
            "buffer" : 0,
            "byteLength" : 102324,
            "byteOffset" : 425428
        }
    ],
    "buffers" : [
        {
            "byteLength" : 527752,
            "uri" : "data:application/octet-stream;base64,"
        }
    ]
}
