{
    "asset" : {
        "generator" : "Khronos glTF Blender I/O v0.9.36",
        "version" : "2.0"
    },
    "scene" : 0,
    "scenes" : [
        {
            "name" : "Scene",
            "nodes" : [
                0
            ]
        }
    ],
    "nodes" : [
        {
            "mesh" : 0,
            "name" : "SM_SurfBoard"
        }
    ],
    "materials" : [
        {
            "doubleSided" : true,
            "name" : "Mat_SurfBoard",
            "pbrMetallicRoughness" : {
                "baseColorTexture" : {
                    "index" : 0,
                    "texCoord" : 0
                },
                "metallicRoughnessTexture" : {
                    "index" : 1,
                    "texCoord" : 0
                }
            }
        }
    ],
    "meshes" : [
        {
            "name" : "Plane.005",
            "primitives" : [
                {
                    "attributes" : {
                        "POSITION" : 0,
                        "NORMAL" : 1,
                        "TEXCOORD_0" : 2
                    },
                    "indices" : 3,
                    "material" : 0
                }
            ]
        }
    ],
    "textures" : [
        {
            "source" : 0
        },
        {
            "source" : 1
        }
    ],
    "images" : [
        {
            "bufferView" : 4,
            "mimeType" : "image/png",
            "name" : "T_SM_SurfBoard_albedo"
        },
        {
            "bufferView" : 5,
            "mimeType" : "image/png",
            "name" : "T_SM_SurfBoard_metallic-T_SM_SurfBoard_roughness"
        }
    ],
    "accessors" : [
        {
            "bufferView" : 0,
            "componentType" : 5126,
            "count" : 3353,
            "max" : [
                0.27491524815559387,
                2.0048928260803223,
                0.1622178554534912
            ],
            "min" : [
                -0.2749152183532715,
                -1.1282549167779348e-17,
                -0.050993144512176514
            ],
            "type" : "VEC3"
        },
        {
            "bufferView" : 1,
            "componentType" : 5126,
            "count" : 3353,
            "type" : "VEC3"
        },
        {
            "bufferView" : 2,
            "componentType" : 5126,
            "count" : 3353,
            "type" : "VEC2"
        },
        {
            "bufferView" : 3,
            "componentType" : 5123,
            "count" : 13404,
            "type" : "SCALAR"
        }
    ],
    "bufferViews" : [
        {
            "buffer" : 0,
            "byteLength" : 40236,
            "byteOffset" : 0
        },
        {
            "buffer" : 0,
            "byteLength" : 40236,
            "byteOffset" : 40236
        },
        {
            "buffer" : 0,
            "byteLength" : 26824,
            "byteOffset" : 80472
        },
        {
            "buffer" : 0,
            "byteLength" : 26808,
            "byteOffset" : 107296
        },
        {
            "buffer" : 0,
            "byteLength" : 304122,
            "byteOffset" : 134104
        },
        {
            "buffer" : 0,
            "byteLength" : 102324,
            "byteOffset" : 438228
        }
    ],
    "buffers" : [
        {
            "byteLength" : 540552,
            "uri" : "data:application/octet-stream;base64,"
        }
    ]
}
