{
    "asset" : {
        "generator" : "Khronos glTF Blender I/O v0.9.36",
        "version" : "2.0"
    },
    "scene" : 0,
    "scenes" : [
        {
            "name" : "Scene",
            "nodes" : [
                0
            ]
        }
    ],
    "nodes" : [
        {
            "mesh" : 0,
            "name" : "SM_SurfBoard"
        }
    ],
    "materials" : [
        {
            "doubleSided" : true,
            "name" : "Mat_SurfBoard",
            "pbrMetallicRoughness" : {
                "baseColorTexture" : {
                    "index" : 0,
                    "texCoord" : 0
                },
                "metallicFactor" : 0,
                "metallicRoughnessTexture" : {
                    "index" : 1,
                    "texCoord" : 0
                }
            }
        }
    ],
    "meshes" : [
        {
            "name" : "Plane.005",
            "primitives" : [
                {
                    "attributes" : {
                        "POSITION" : 0,
                        "NORMAL" : 1,
                        "TEXCOORD_0" : 2
                    },
                    "indices" : 3,
                    "material" : 0
                }
            ]
        }
    ],
    "textures" : [
        {
            "source" : 0
        },
        {
            "source" : 1
        }
    ],
    "images" : [
        {
            "bufferView" : 4,
            "mimeType" : "image/png",
            "name" : "T_SM_SurfBoard_albedo"
        },
        {
            "bufferView" : 5,
            "mimeType" : "image/png",
            "name" : "T_SM_SurfBoard_roughness"
        }
    ],
    "accessors" : [
        {
            "bufferView" : 0,
            "componentType" : 5126,
            "count" : 3354,
            "max" : [
                0.2199321985244751,
                1.714545726776123,
                0.1297742873430252
            ],
            "min" : [
                -0.2199321836233139,
                3.203749656677246e-07,
                -0.04079451784491539
            ],
            "type" : "VEC3"
        },
        {
            "bufferView" : 1,
            "componentType" : 5126,
            "count" : 3354,
            "type" : "VEC3"
        },
        {
            "bufferView" : 2,
            "componentType" : 5126,
            "count" : 3354,
            "type" : "VEC2"
        },
        {
            "bufferView" : 3,
            "componentType" : 5123,
            "count" : 13407,
            "type" : "SCALAR"
        }
    ],
    "bufferViews" : [
        {
            "buffer" : 0,
            "byteLength" : 40248,
            "byteOffset" : 0
        },
        {
            "buffer" : 0,
            "byteLength" : 40248,
            "byteOffset" : 40248
        },
        {
            "buffer" : 0,
            "byteLength" : 26832,
            "byteOffset" : 80496
        },
        {
            "buffer" : 0,
            "byteLength" : 26814,
            "byteOffset" : 107328
        },
        {
            "buffer" : 0,
            "byteLength" : 285102,
            "byteOffset" : 134144
        },
        {
            "buffer" : 0,
            "byteLength" : 106647,
            "byteOffset" : 419248
        }
    ],
    "buffers" : [
        {
            "byteLength" : 525896,
            "uri" : "data:application/octet-stream;base64,"
        }
    ]
}
