{
    "asset" : {
        "generator" : "Khronos glTF Blender I/O v0.9.36",
        "version" : "2.0"
    },
    "scene" : 0,
    "scenes" : [
        {
            "name" : "Scene",
            "nodes" : [
                0
            ]
        }
    ],
    "nodes" : [
        {
            "mesh" : 0,
            "name" : "geo_4_TurTorren_000",
            "rotation" : [
                0.7071068286895752,
                0,
                0,
                0.7071067094802856
            ],
            "scale" : [
                0.009999999776482582,
                0.009999999776482582,
                0.009999999776482582
            ],
            "translation" : [
                0,
                1.095202922821045,
                -0.011896219104528427
            ]
        }
    ],
    "materials" : [
        {
            "doubleSided" : true,
            "name" : "Body.002",
            "pbrMetallicRoughness" : {
                "baseColorTexture" : {
                    "index" : 0,
                    "texCoord" : 0
                },
                "metallicFactor" : 1,
                "roughnessFactor" : 0.7171573042869568
            }
        },
        {
            "doubleSided" : true,
            "name" : "Props.002",
            "pbrMetallicRoughness" : {
                "baseColorFactor" : [
                    0.011764707043766975,
                    0.011764707043766975,
                    0.011764707043766975,
                    1
                ],
                "metallicFactor" : 1,
                "roughnessFactor" : 0.696856677532196
            }
        }
    ],
    "meshes" : [
        {
            "name" : "Mesh.002",
            "primitives" : [
                {
                    "attributes" : {
                        "POSITION" : 0,
                        "NORMAL" : 1,
                        "TEXCOORD_0" : 2
                    },
                    "indices" : 3,
                    "material" : 0
                },
                {
                    "attributes" : {
                        "POSITION" : 4,
                        "NORMAL" : 5,
                        "TEXCOORD_0" : 6
                    },
                    "indices" : 7,
                    "material" : 1
                }
            ]
        }
    ],
    "textures" : [
        {
            "source" : 0
        }
    ],
    "images" : [
        {
            "bufferView" : 4,
            "mimeType" : "image/jpeg",
            "name" : "T_TurTorren_Low"
        }
    ],
    "accessors" : [
        {
            "bufferView" : 0,
            "componentType" : 5126,
            "count" : 5436,
            "max" : [
                23.648983001708984,
                5.33743143081665,
                109.52425384521484
            ],
            "min" : [
                -23.648984909057617,
                -3.8368489742279053,
                -78.81636047363281
            ],
            "type" : "VEC3"
        },
        {
            "bufferView" : 1,
            "componentType" : 5126,
            "count" : 5436,
            "type" : "VEC3"
        },
        {
            "bufferView" : 2,
            "componentType" : 5126,
            "count" : 5436,
            "type" : "VEC2"
        },
        {
            "bufferView" : 3,
            "componentType" : 5123,
            "count" : 30690,
            "type" : "SCALAR"
        },
        {
            "bufferView" : 5,
            "componentType" : 5126,
            "count" : 1818,
            "max" : [
                13.542465209960938,
                2.1804137229919434,
                94.65336608886719
            ],
            "min" : [
                -13.542465209960938,
                -2.4047024250030518,
                62.07468032836914
            ],
            "type" : "VEC3"
        },
        {
            "bufferView" : 6,
            "componentType" : 5126,
            "count" : 1818,
            "type" : "VEC3"
        },
        {
            "bufferView" : 7,
            "componentType" : 5126,
            "count" : 1818,
            "type" : "VEC2"
        },
        {
            "bufferView" : 8,
            "componentType" : 5123,
            "count" : 5658,
            "type" : "SCALAR"
        }
    ],
    "bufferViews" : [
        {
            "buffer" : 0,
            "byteLength" : 65232,
            "byteOffset" : 0
        },
        {
            "buffer" : 0,
            "byteLength" : 65232,
            "byteOffset" : 65232
        },
        {
            "buffer" : 0,
            "byteLength" : 43488,
            "byteOffset" : 130464
        },
        {
            "buffer" : 0,
            "byteLength" : 61380,
            "byteOffset" : 173952
        },
        {
            "buffer" : 0,
            "byteLength" : 39479,
            "byteOffset" : 235332
        },
        {
            "buffer" : 0,
            "byteLength" : 21816,
            "byteOffset" : 274812
        },
        {
            "buffer" : 0,
            "byteLength" : 21816,
            "byteOffset" : 296628
        },
        {
            "buffer" : 0,
            "byteLength" : 14544,
            "byteOffset" : 318444
        },
        {
            "buffer" : 0,
            "byteLength" : 11316,
            "byteOffset" : 332988
        }
    ],
    "buffers" : [
        {
            "byteLength" : 344304,
            "uri" : "data:application/octet-stream;base64,"
        }
    ]
}
