{
    "asset" : {
        "generator" : "Khronos glTF Blender I/O v0.9.36",
        "version" : "2.0"
    },
    "scene" : 0,
    "scenes" : [
        {
            "name" : "Scene",
            "nodes" : [
                0
            ]
        }
    ],
    "nodes" : [
        {
            "mesh" : 0,
            "name" : "geo_4_turtwin_000",
            "rotation" : [
                0.7071068286895752,
                0,
                0,
                0.7071067094802856
            ],
            "scale" : [
                0.009999999776482582,
                0.009999999776482582,
                0.009999999776482582
            ],
            "translation" : [
                0,
                1.058172583580017,
                -0.009395074099302292
            ]
        }
    ],
    "materials" : [
        {
            "doubleSided" : true,
            "name" : "Body.001",
            "pbrMetallicRoughness" : {
                "baseColorTexture" : {
                    "index" : 0,
                    "texCoord" : 0
                },
                "metallicFactor" : 1,
                "roughnessFactor" : 0.7171573042869568
            }
        },
        {
            "doubleSided" : true,
            "name" : "Props.001",
            "pbrMetallicRoughness" : {
                "baseColorFactor" : [
                    0.011764707043766975,
                    0.011764707043766975,
                    0.011764707043766975,
                    1
                ],
                "metallicFactor" : 1,
                "roughnessFactor" : 0.696856677532196
            }
        }
    ],
    "meshes" : [
        {
            "name" : "Mesh.001",
            "primitives" : [
                {
                    "attributes" : {
                        "POSITION" : 0,
                        "NORMAL" : 1,
                        "TEXCOORD_0" : 2
                    },
                    "indices" : 3,
                    "material" : 0
                },
                {
                    "attributes" : {
                        "POSITION" : 4,
                        "NORMAL" : 5,
                        "TEXCOORD_0" : 6
                    },
                    "indices" : 7,
                    "material" : 1
                }
            ]
        }
    ],
    "textures" : [
        {
            "source" : 0
        }
    ],
    "images" : [
        {
            "bufferView" : 4,
            "mimeType" : "image/png",
            "name" : "T_TurTwin_Low"
        }
    ],
    "accessors" : [
        {
            "bufferView" : 0,
            "componentType" : 5126,
            "count" : 3457,
            "max" : [
                25.263975143432617,
                5.429844379425049,
                105.81780242919922
            ],
            "min" : [
                -25.263975143432617,
                -3.8002190589904785,
                -78.94890594482422
            ],
            "type" : "VEC3"
        },
        {
            "bufferView" : 1,
            "componentType" : 5126,
            "count" : 3457,
            "type" : "VEC3"
        },
        {
            "bufferView" : 2,
            "componentType" : 5126,
            "count" : 3457,
            "type" : "VEC2"
        },
        {
            "bufferView" : 3,
            "componentType" : 5123,
            "count" : 19782,
            "type" : "SCALAR"
        },
        {
            "bufferView" : 5,
            "componentType" : 5126,
            "count" : 1807,
            "max" : [
                13.510169982910156,
                2.1545581817626953,
                87.98783111572266
            ],
            "min" : [
                -13.510169982910156,
                -2.0551705360412598,
                65.78882598876953
            ],
            "type" : "VEC3"
        },
        {
            "bufferView" : 6,
            "componentType" : 5126,
            "count" : 1807,
            "type" : "VEC3"
        },
        {
            "bufferView" : 7,
            "componentType" : 5126,
            "count" : 1807,
            "type" : "VEC2"
        },
        {
            "bufferView" : 8,
            "componentType" : 5123,
            "count" : 5658,
            "type" : "SCALAR"
        }
    ],
    "bufferViews" : [
        {
            "buffer" : 0,
            "byteLength" : 41484,
            "byteOffset" : 0
        },
        {
            "buffer" : 0,
            "byteLength" : 41484,
            "byteOffset" : 41484
        },
        {
            "buffer" : 0,
            "byteLength" : 27656,
            "byteOffset" : 82968
        },
        {
            "buffer" : 0,
            "byteLength" : 39564,
            "byteOffset" : 110624
        },
        {
            "buffer" : 0,
            "byteLength" : 86117,
            "byteOffset" : 150188
        },
        {
            "buffer" : 0,
            "byteLength" : 21684,
            "byteOffset" : 236308
        },
        {
            "buffer" : 0,
            "byteLength" : 21684,
            "byteOffset" : 257992
        },
        {
            "buffer" : 0,
            "byteLength" : 14456,
            "byteOffset" : 279676
        },
        {
            "buffer" : 0,
            "byteLength" : 11316,
            "byteOffset" : 294132
        }
    ],
    "buffers" : [
        {
            "byteLength" : 305448,
            "uri" : "data:application/octet-stream;base64,"
        }
    ]
}
