{
    "asset" : {
        "generator" : "Khronos glTF Blender I/O v0.9.36",
        "version" : "2.0"
    },
    "scene" : 0,
    "scenes" : [
        {
            "name" : "Scene",
            "nodes" : [
                0
            ]
        }
    ],
    "nodes" : [
        {
            "mesh" : 0,
            "name" : "geo_4_Twin82_000",
            "rotation" : [
                0.7071068286895752,
                0,
                0,
                0.7071067094802856
            ],
            "scale" : [
                0.009999999776482582,
                0.009999999776482582,
                0.009999999776482582
            ],
            "translation" : [
                0,
                1.092976450920105,
                -0.009395075030624866
            ]
        }
    ],
    "materials" : [
        {
            "doubleSided" : true,
            "name" : "Body.003",
            "pbrMetallicRoughness" : {
                "baseColorTexture" : {
                    "index" : 0,
                    "texCoord" : 0
                },
                "metallicFactor" : 1,
                "roughnessFactor" : 0.7171573042869568
            }
        },
        {
            "doubleSided" : true,
            "name" : "Props.003",
            "pbrMetallicRoughness" : {
                "baseColorFactor" : [
                    0.011764707043766975,
                    0.011764707043766975,
                    0.011764707043766975,
                    1
                ],
                "metallicFactor" : 1,
                "roughnessFactor" : 0.696856677532196
            }
        }
    ],
    "meshes" : [
        {
            "name" : "Mesh.003",
            "primitives" : [
                {
                    "attributes" : {
                        "POSITION" : 0,
                        "NORMAL" : 1,
                        "TEXCOORD_0" : 2
                    },
                    "indices" : 3,
                    "material" : 0
                },
                {
                    "attributes" : {
                        "POSITION" : 4,
                        "NORMAL" : 5,
                        "TEXCOORD_0" : 6
                    },
                    "indices" : 7,
                    "material" : 1
                }
            ]
        }
    ],
    "textures" : [
        {
            "source" : 0
        }
    ],
    "images" : [
        {
            "bufferView" : 4,
            "mimeType" : "image/jpeg",
            "name" : "T_Twin 82_Low"
        }
    ],
    "accessors" : [
        {
            "bufferView" : 0,
            "componentType" : 5126,
            "count" : 3432,
            "max" : [
                24.09884262084961,
                5.370402812957764,
                109.29766845703125
            ],
            "min" : [
                -24.09884262084961,
                -3.8012657165527344,
                -78.87835693359375
            ],
            "type" : "VEC3"
        },
        {
            "bufferView" : 1,
            "componentType" : 5126,
            "count" : 3432,
            "type" : "VEC3"
        },
        {
            "bufferView" : 2,
            "componentType" : 5126,
            "count" : 3432,
            "type" : "VEC2"
        },
        {
            "bufferView" : 3,
            "componentType" : 5123,
            "count" : 18930,
            "type" : "SCALAR"
        },
        {
            "bufferView" : 5,
            "componentType" : 5126,
            "count" : 2481,
            "max" : [
                15.241188049316406,
                2.1980347633361816,
                91.60453796386719
            ],
            "min" : [
                -15.241188049316406,
                -2.560944080352783,
                60.4184455871582
            ],
            "type" : "VEC3"
        },
        {
            "bufferView" : 6,
            "componentType" : 5126,
            "count" : 2481,
            "type" : "VEC3"
        },
        {
            "bufferView" : 7,
            "componentType" : 5126,
            "count" : 2481,
            "type" : "VEC2"
        },
        {
            "bufferView" : 8,
            "componentType" : 5123,
            "count" : 7230,
            "type" : "SCALAR"
        }
    ],
    "bufferViews" : [
        {
            "buffer" : 0,
            "byteLength" : 41184,
            "byteOffset" : 0
        },
        {
            "buffer" : 0,
            "byteLength" : 41184,
            "byteOffset" : 41184
        },
        {
            "buffer" : 0,
            "byteLength" : 27456,
            "byteOffset" : 82368
        },
        {
            "buffer" : 0,
            "byteLength" : 37860,
            "byteOffset" : 109824
        },
        {
            "buffer" : 0,
            "byteLength" : 40558,
            "byteOffset" : 147684
        },
        {
            "buffer" : 0,
            "byteLength" : 29772,
            "byteOffset" : 188244
        },
        {
            "buffer" : 0,
            "byteLength" : 29772,
            "byteOffset" : 218016
        },
        {
            "buffer" : 0,
            "byteLength" : 19848,
            "byteOffset" : 247788
        },
        {
            "buffer" : 0,
            "byteLength" : 14460,
            "byteOffset" : 267636
        }
    ],
    "buffers" : [
        {
            "byteLength" : 282096,
            "uri" : "data:application/octet-stream;base64,"
        }
    ]
}
