{
    "asset" : {
        "generator" : "Khronos glTF Blender I/O v0.9.36",
        "version" : "2.0"
    },
    "scene" : 0,
    "scenes" : [
        {
            "name" : "Scene",
            "nodes" : [
                0
            ]
        }
    ],
    "nodes" : [
        {
            "mesh" : 0,
            "name" : "Dress-1_58542",
            "rotation" : [
                0.7071068286895752,
                0,
                0,
                0.7071067094802856
            ]
        }
    ],
    "materials" : [
        {
            "doubleSided" : true,
            "name" : "Mat_Dress1",
            "normalTexture" : {
                "index" : 0,
                "texCoord" : 0
            },
            "pbrMetallicRoughness" : {
                "baseColorTexture" : {
                    "index" : 1,
                    "texCoord" : 0
                },
                "metallicFactor" : 0,
                "roughnessFactor" : 0.800000011920929
            }
        }
    ],
    "meshes" : [
        {
            "name" : "Dress-1_58542",
            "primitives" : [
                {
                    "attributes" : {
                        "POSITION" : 0,
                        "NORMAL" : 1,
                        "TEXCOORD_0" : 2
                    },
                    "indices" : 3,
                    "material" : 0
                }
            ]
        }
    ],
    "textures" : [
        {
            "source" : 0
        },
        {
            "source" : 1
        }
    ],
    "images" : [
        {
            "bufferView" : 4,
            "mimeType" : "image/jpeg",
            "name" : "Dress-1-N"
        },
        {
            "bufferView" : 5,
            "mimeType" : "image/jpeg",
            "name" : "Dress-1-T"
        }
    ],
    "accessors" : [
        {
            "bufferView" : 0,
            "componentType" : 5126,
            "count" : 20925,
            "max" : [
                0.373159259557724,
                0.16881373524665833,
                -0.3589547872543335
            ],
            "min" : [
                -0.35136324167251587,
                -0.2027183324098587,
                -1.5099064111709595
            ],
            "type" : "VEC3"
        },
        {
            "bufferView" : 1,
            "componentType" : 5126,
            "count" : 20925,
            "type" : "VEC3"
        },
        {
            "bufferView" : 2,
            "componentType" : 5126,
            "count" : 20925,
            "type" : "VEC2"
        },
        {
            "bufferView" : 3,
            "componentType" : 5123,
            "count" : 118758,
            "type" : "SCALAR"
        }
    ],
    "bufferViews" : [
        {
            "buffer" : 0,
            "byteLength" : 251100,
            "byteOffset" : 0
        },
        {
            "buffer" : 0,
            "byteLength" : 251100,
            "byteOffset" : 251100
        },
        {
            "buffer" : 0,
            "byteLength" : 167400,
            "byteOffset" : 502200
        },
        {
            "buffer" : 0,
            "byteLength" : 237516,
            "byteOffset" : 669600
        },
        {
            "buffer" : 0,
            "byteLength" : 890060,
            "byteOffset" : 907116
        },
        {
            "buffer" : 0,
            "byteLength" : 1133663,
            "byteOffset" : 1797176
        }
    ],
    "buffers" : [
        {
            "byteLength" : 2930840,
            "uri" : "data:application/octet-stream;base64,"
        }
    ]
}
